<svg xmlns="http://www.w3.org/2000/svg" xmlns:xlink="http://www.w3.org/1999/xlink" width="425" zoomAndPan="magnify" viewBox="0 0 318.75 120.749998" height="161" preserveAspectRatio="xMidYMid meet" version="1.0"><defs><g/><clipPath id="db5f4f981e"><path d="M 37.992188 45.394531 L 280.183594 45.394531 L 280.183594 87.148438 L 37.992188 87.148438 Z M 37.992188 45.394531 " clip-rule="nonzero"/></clipPath><clipPath id="ba1459f022"><path d="M 98 51 L 102 51 L 102 58.378906 L 98 58.378906 Z M 98 51 " clip-rule="nonzero"/></clipPath><clipPath id="b80e213bf8"><path d="M 98 50 L 106 50 L 106 58.378906 L 98 58.378906 Z M 98 50 " clip-rule="nonzero"/></clipPath><clipPath id="8bd1651e4b"><path d="M 209 47 L 219 47 L 219 58.378906 L 209 58.378906 Z M 209 47 " clip-rule="nonzero"/></clipPath><clipPath id="008a8146c5"><path d="M 215 53 L 219 53 L 219 58.378906 L 215 58.378906 Z M 215 53 " clip-rule="nonzero"/></clipPath><clipPath id="0154623ca4"><path d="M 116 26 L 137 26 L 137 58.378906 L 116 58.378906 Z M 116 26 " clip-rule="nonzero"/></clipPath><clipPath id="5164f6268f"><path d="M 198 49 L 201 49 L 201 58.378906 L 198 58.378906 Z M 198 49 " clip-rule="nonzero"/></clipPath><clipPath id="07735ab266"><path d="M 114 14 L 205 14 L 205 58.378906 L 114 58.378906 Z M 114 14 " clip-rule="nonzero"/></clipPath><clipPath id="ac044356e4"><path d="M 69 58 L 251 58 L 251 58.378906 L 69 58.378906 Z M 69 58 " clip-rule="nonzero"/></clipPath><clipPath id="af3795595d"><path d="M 68 58 L 251.167969 58 L 251.167969 58.378906 L 68 58.378906 Z M 68 58 " clip-rule="nonzero"/></clipPath><clipPath id="9b768fb908"><path d="M 71 58 L 248 58 L 248 58.378906 L 71 58.378906 Z M 71 58 " clip-rule="nonzero"/></clipPath><clipPath id="37c94de2bd"><path d="M 159 58 L 247 58 L 247 58.378906 L 159 58.378906 Z M 159 58 " clip-rule="nonzero"/></clipPath><clipPath id="a14375e19f"><path d="M 189 58 L 246 58 L 246 58.378906 L 189 58.378906 Z M 189 58 " clip-rule="nonzero"/></clipPath><clipPath id="ced7518ce2"><path d="M 222 58 L 247 58 L 247 58.378906 L 222 58.378906 Z M 222 58 " clip-rule="nonzero"/></clipPath><clipPath id="17323e19fa"><path d="M 67.050781 58 L 105 58 L 105 58.378906 L 67.050781 58.378906 Z M 67.050781 58 " clip-rule="nonzero"/></clipPath><clipPath id="20f80285a4"><path d="M 16.882812 39.277344 L 303.277344 39.277344 L 303.277344 93.265625 L 16.882812 93.265625 Z M 16.882812 39.277344 " clip-rule="nonzero"/></clipPath><clipPath id="2ced96eaac"><path d="M 22.121094 39.277344 L 297.847656 39.277344 C 299.238281 39.277344 300.570312 39.828125 301.554688 40.8125 C 302.535156 41.792969 303.089844 43.125 303.089844 44.515625 L 303.089844 88.027344 C 303.089844 89.417969 302.535156 90.75 301.554688 91.730469 C 300.570312 92.714844 299.238281 93.265625 297.847656 93.265625 L 22.121094 93.265625 C 20.730469 93.265625 19.398438 92.714844 18.414062 91.730469 C 17.433594 90.75 16.882812 89.417969 16.882812 88.027344 L 16.882812 44.515625 C 16.882812 43.125 17.433594 41.792969 18.414062 40.8125 C 19.398438 39.828125 20.730469 39.277344 22.121094 39.277344 Z M 22.121094 39.277344 " clip-rule="nonzero"/></clipPath><clipPath id="14678f42eb"><path d="M 16.882812 39.277344 L 302.789062 39.277344 L 302.789062 93.164062 L 16.882812 93.164062 Z M 16.882812 39.277344 " clip-rule="nonzero"/></clipPath><clipPath id="e1d53b900b"><path d="M 22.132812 39.277344 L 297.828125 39.277344 C 299.21875 39.277344 300.550781 39.828125 301.53125 40.8125 C 302.515625 41.792969 303.066406 43.125 303.066406 44.515625 L 303.066406 88.019531 C 303.066406 89.410156 302.515625 90.742188 301.53125 91.726562 C 300.550781 92.707031 299.21875 93.257812 297.828125 93.257812 L 22.132812 93.257812 C 20.746094 93.257812 19.414062 92.707031 18.429688 91.726562 C 17.449219 90.742188 16.894531 89.410156 16.894531 88.019531 L 16.894531 44.515625 C 16.894531 43.125 17.449219 41.792969 18.429688 40.8125 C 19.414062 39.828125 20.746094 39.277344 22.132812 39.277344 Z M 22.132812 39.277344 " clip-rule="nonzero"/></clipPath></defs><g clip-path="url(#db5f4f981e)"><path fill="#fff3e1" d="M 37.992188 45.394531 L 280.203125 45.394531 L 280.203125 87.148438 L 37.992188 87.148438 Z M 37.992188 45.394531 " fill-opacity="1" fill-rule="nonzero"/></g><g clip-path="url(#ba1459f022)"><path fill="#2f272a" d="M 101.949219 59.761719 C 101.695312 58.890625 101.605469 58.488281 101.375 57.789062 C 101.324219 57.636719 101.269531 57.484375 101.195312 57.3125 C 101.109375 57.105469 101.007812 56.886719 100.890625 56.617188 C 100.726562 56.300781 100.648438 55.941406 100.523438 55.582031 C 100.429688 55.304688 100.304688 55.039062 100.207031 54.75 C 100.101562 54.453125 100.007812 54.15625 99.894531 53.859375 C 99.585938 53.070312 99.25 52.445312 98.988281 51.746094 C 98.800781 52.308594 98.625 52.8125 98.472656 53.457031 C 98.425781 53.65625 98.390625 53.835938 98.367188 54.046875 C 98.34375 54.246094 98.347656 54.441406 98.351562 54.640625 C 98.355469 55.160156 98.40625 55.671875 98.53125 56.160156 C 98.582031 56.367188 98.660156 56.566406 98.746094 56.757812 C 98.890625 57.066406 99.0625 57.347656 99.257812 57.605469 C 99.453125 57.851562 99.613281 58.058594 99.78125 58.234375 C 99.921875 58.386719 100.046875 58.507812 100.183594 58.621094 C 100.492188 58.871094 100.734375 59.023438 101.050781 59.222656 C 101.335938 59.398438 101.578125 59.53125 101.949219 59.761719 Z M 101.949219 59.761719 " fill-opacity="1" fill-rule="evenodd"/></g><g clip-path="url(#b80e213bf8)"><path fill="#2f272a" d="M 98.46875 50.328125 C 98.226562 51.269531 98.109375 52.15625 98.148438 53.136719 C 98.167969 53.519531 98.226562 53.886719 98.300781 54.261719 C 98.417969 54.820312 98.605469 55.351562 98.789062 55.882812 C 98.902344 56.179688 98.996094 56.496094 99.121094 56.800781 C 99.210938 57.027344 99.316406 57.242188 99.4375 57.453125 C 99.652344 57.84375 99.902344 58.214844 100.210938 58.535156 C 100.605469 58.921875 101.082031 59.289062 101.671875 59.496094 C 102.015625 59.613281 102.355469 59.699219 102.726562 59.734375 C 103.648438 59.816406 104.515625 59.703125 105.226562 59.363281 C 104.648438 59.339844 104.074219 59.132812 103.46875 58.835938 C 103.070312 58.644531 102.746094 58.386719 102.40625 58.125 C 102.097656 57.890625 101.847656 57.632812 101.664062 57.347656 C 101.582031 57.230469 101.523438 57.101562 101.457031 56.976562 C 101.308594 56.695312 101.210938 56.386719 101.085938 56.089844 C 100.941406 55.742188 100.773438 55.40625 100.613281 55.078125 C 100.269531 54.460938 99.984375 53.808594 99.679688 53.164062 C 99.464844 52.707031 99.226562 52.3125 99.027344 51.851562 C 98.804688 51.335938 98.613281 50.867188 98.46875 50.328125 Z M 98.46875 50.328125 " fill-opacity="1" fill-rule="evenodd"/></g><path fill="#2f272a" d="M 98.339844 50.644531 C 99.199219 51.726562 100.078125 52.757812 101.148438 53.574219 C 101.902344 54.152344 102.742188 54.574219 103.695312 54.863281 C 104.09375 54.972656 104.925781 55.070312 105.519531 54.910156 C 106 54.777344 106.328125 54.457031 106.507812 54.035156 C 106.839844 53.226562 106.882812 52.421875 106.769531 51.621094 C 106.65625 50.804688 106.363281 49.996094 106.039062 49.195312 C 105.769531 48.515625 105.46875 47.847656 105.3125 47.175781 C 104.992188 46.015625 104.667969 44.835938 104.347656 43.648438 C 104.140625 42.871094 103.933594 42.09375 103.742188 41.308594 C 103.644531 40.917969 103.550781 40.53125 103.457031 40.140625 C 103.238281 39.222656 103.023438 38.316406 102.863281 37.390625 C 102.617188 35.945312 102.46875 34.519531 102.511719 33.0625 C 101.921875 35.46875 101.789062 37.933594 101.996094 40.433594 C 102.097656 41.664062 102.304688 42.882812 102.53125 44.09375 C 102.757812 45.304688 103.035156 46.496094 103.289062 47.671875 C 103.488281 48.445312 103.828125 49.222656 104.175781 49.992188 C 104.46875 50.640625 104.777344 51.28125 104.917969 51.949219 C 105.019531 52.433594 105.058594 52.933594 104.894531 53.445312 C 104.910156 53.386719 104.976562 53.269531 105.011719 53.320312 C 105.199219 53.59375 104.210938 53.46875 103.972656 53.4375 C 103.125 53.359375 102.359375 53.132812 101.621094 52.789062 C 100.449219 52.242188 99.386719 51.476562 98.339844 50.644531 Z M 98.339844 50.644531 " fill-opacity="1" fill-rule="evenodd"/><path fill="#2f272a" d="M 107.808594 38.125 C 107.488281 38.199219 106.890625 38.136719 106.792969 38.136719 L 105.570312 38.140625 C 105.464844 38.140625 105.351562 38.078125 105.238281 37.996094 C 105.03125 37.847656 104.828125 37.671875 104.660156 37.523438 C 104.15625 37.089844 103.773438 36.605469 103.472656 36.0625 C 102.984375 35.195312 102.683594 34.242188 102.394531 33.234375 C 102.445312 34.316406 102.519531 35.351562 102.804688 36.34375 C 103.011719 37.042969 103.332031 37.691406 103.804688 38.320312 C 104.039062 38.628906 104.347656 39.015625 104.675781 39.277344 C 104.917969 39.472656 105.1875 39.566406 105.441406 39.613281 L 106.683594 39.78125 C 106.921875 39.808594 108.082031 39.804688 108.722656 39.554688 C 109.152344 39.386719 109.402344 39.082031 109.523438 38.785156 C 109.824219 38.054688 109.980469 37.316406 110.066406 36.566406 C 110.175781 35.597656 110.164062 34.617188 110.167969 33.632812 C 110.167969 33.050781 110.164062 32.464844 110.234375 31.878906 C 110.332031 30.964844 110.480469 30.066406 110.65625 29.164062 C 110.816406 28.34375 111.003906 27.53125 111.1875 26.714844 C 111.3125 26.160156 111.417969 25.609375 111.542969 25.058594 C 111.785156 23.90625 112.011719 22.789062 112.316406 21.664062 C 112.519531 20.917969 112.742188 20.1875 113.035156 19.457031 C 112.585938 20.117188 112.199219 20.78125 111.839844 21.476562 C 111.296875 22.527344 110.84375 23.59375 110.363281 24.679688 C 110.132812 25.234375 109.898438 25.777344 109.6875 26.339844 C 109.476562 26.902344 109.292969 27.476562 109.113281 28.050781 C 108.753906 29.210938 108.464844 30.394531 108.242188 31.589844 C 108.132812 32.269531 108.082031 32.949219 108.078125 33.628906 C 108.074219 34.554688 108.152344 35.476562 108.097656 36.394531 C 108.066406 36.972656 107.996094 37.550781 107.808594 38.125 Z M 107.8125 38.125 C 107.964844 38.089844 108.054688 38.023438 107.996094 37.90625 C 107.941406 37.800781 107.847656 38.019531 107.8125 38.125 Z M 107.8125 38.125 " fill-opacity="1" fill-rule="evenodd"/><path fill="#2f272a" d="M 112.777344 19.746094 C 112.671875 20.242188 112.503906 20.769531 112.386719 21.304688 C 112.339844 21.542969 112.300781 21.777344 112.277344 22.007812 C 112.199219 22.921875 112.242188 23.796875 112.429688 24.648438 C 112.625 25.539062 113.003906 26.367188 113.539062 27.171875 C 114.050781 27.878906 114.667969 28.324219 115.308594 28.511719 C 116.035156 28.722656 116.828125 28.578125 117.683594 27.964844 C 118.367188 27.460938 118.773438 26.84375 119.03125 26.171875 C 119.304688 25.472656 119.390625 24.695312 119.433594 23.902344 C 119.464844 23.289062 119.449219 22.660156 119.570312 22.066406 C 119.648438 21.632812 119.753906 21.222656 119.875 20.8125 C 120.0625 20.164062 120.285156 19.523438 120.5 18.824219 C 120.785156 17.8125 121.0625 16.910156 121.402344 15.996094 C 121.621094 15.40625 121.847656 14.8125 122.160156 14.191406 C 122.511719 13.472656 122.757812 12.707031 123.070312 11.964844 C 123.203125 11.652344 123.34375 11.355469 123.511719 11.070312 C 123.585938 10.945312 123.738281 10.714844 123.917969 10.550781 C 124.042969 10.433594 124.179688 10.359375 124.304688 10.386719 C 124.179688 10.328125 124.019531 10.375 123.859375 10.46875 C 123.628906 10.597656 123.414062 10.808594 123.3125 10.914062 C 123.070312 11.171875 122.859375 11.441406 122.65625 11.730469 C 122.199219 12.371094 121.8125 13.054688 121.328125 13.667969 C 120.75 14.414062 120.296875 15.125 119.898438 15.878906 C 119.507812 16.621094 119.195312 17.398438 118.839844 18.238281 C 118.5625 18.925781 118.285156 19.554688 118.039062 20.199219 C 117.863281 20.664062 117.710938 21.136719 117.585938 21.640625 C 117.445312 22.246094 117.390625 22.886719 117.359375 23.519531 C 117.335938 24.050781 117.335938 24.578125 117.246094 25.078125 C 117.152344 25.589844 116.980469 26.082031 116.511719 26.472656 C 116.230469 26.710938 115.980469 26.851562 115.71875 26.800781 C 115.382812 26.738281 115.070312 26.511719 114.773438 26.179688 C 114.210938 25.605469 113.789062 24.988281 113.480469 24.304688 C 113.152344 23.578125 112.929688 22.820312 112.816406 21.996094 C 112.785156 21.78125 112.769531 21.5625 112.761719 21.339844 C 112.753906 20.800781 112.789062 20.25 112.777344 19.746094 Z M 112.777344 19.746094 " fill-opacity="1" fill-rule="evenodd"/><path fill="#2f272a" d="M 124.238281 10.1875 C 123.894531 11.324219 123.9375 12.507812 124.203125 13.675781 C 124.476562 14.859375 125.003906 15.976562 125.59375 16.980469 C 125.929688 17.5 126.636719 17.898438 127.390625 18.035156 C 128.175781 18.183594 128.988281 17.96875 129.535156 17.476562 C 129.742188 17.285156 130.003906 17.066406 130.230469 16.824219 C 130.425781 16.617188 130.59375 16.394531 130.71875 16.167969 C 130.832031 15.96875 130.925781 15.761719 131.007812 15.546875 C 131.25 14.914062 131.34375 14.21875 131.65625 13.625 C 131.96875 12.96875 132.320312 12.1875 132.695312 11.464844 C 132.84375 11.175781 132.992188 10.890625 133.152344 10.636719 C 133.847656 9.511719 134.652344 8.433594 135.476562 7.351562 C 135.828125 6.886719 136.175781 6.421875 136.53125 5.957031 C 137.75 4.371094 138.992188 2.839844 140.25 1.371094 C 138.390625 2.789062 136.460938 4.226562 134.71875 5.898438 C 133.542969 7.027344 132.5 8.269531 131.542969 9.535156 C 131.257812 9.921875 130.988281 10.359375 130.738281 10.816406 C 130.386719 11.453125 130.082031 12.128906 129.792969 12.703125 C 129.695312 12.90625 129.613281 13.117188 129.546875 13.335938 C 129.347656 13.96875 129.300781 14.664062 129.007812 15.261719 C 128.957031 15.363281 128.886719 15.46875 128.808594 15.5625 C 128.625 15.785156 128.417969 15.996094 128.25 16.171875 C 128.097656 16.335938 127.847656 16.371094 127.609375 16.351562 C 127.300781 16.328125 126.972656 16.273438 126.8125 16.082031 C 125.960938 15.144531 125.175781 14.035156 124.703125 12.804688 C 124.375 11.960938 124.1875 11.089844 124.238281 10.1875 Z M 124.238281 10.1875 " fill-opacity="1" fill-rule="evenodd"/><path fill="#2f272a" d="M 140.257812 1.828125 C 139.488281 2.566406 139.03125 3.480469 138.765625 4.484375 C 138.367188 5.984375 138.453125 7.640625 138.605469 9.128906 C 138.722656 9.898438 139.207031 10.902344 139.898438 11.589844 C 140.464844 12.152344 141.179688 12.464844 141.941406 12.441406 C 142.425781 12.421875 142.859375 12.25 143.253906 11.992188 C 143.910156 11.566406 144.421875 10.8125 144.851562 10.300781 L 146.636719 8.003906 C 147.304688 7.132812 148.023438 6.328125 148.78125 5.558594 C 149.242188 5.089844 149.714844 4.644531 150.199219 4.195312 C 150.929688 3.523438 151.660156 2.859375 152.457031 2.234375 C 153.007812 1.792969 153.710938 1.191406 154.46875 0.726562 C 154.976562 0.414062 155.492188 0.167969 155.996094 0.0859375 C 155.46875 0.0546875 154.890625 0.1875 154.308594 0.390625 C 153.449219 0.6875 152.613281 1.140625 151.960938 1.464844 C 151.054688 1.933594 150.179688 2.417969 149.34375 2.976562 C 148.980469 3.21875 148.632812 3.476562 148.289062 3.742188 C 147.140625 4.628906 146.09375 5.632812 145.101562 6.726562 L 143.226562 9.003906 C 142.988281 9.320312 142.726562 9.746094 142.402344 10.101562 C 142.230469 10.289062 142.066406 10.496094 141.8125 10.519531 C 141.472656 10.558594 141.167969 10.335938 140.914062 10.066406 C 140.554688 9.683594 140.265625 9.207031 140.164062 8.808594 C 139.753906 7.492188 139.398438 6.019531 139.457031 4.589844 C 139.5 3.609375 139.710938 2.675781 140.257812 1.828125 Z M 140.257812 1.828125 " fill-opacity="1" fill-rule="evenodd"/><path fill="#2f272a" d="M 140.195312 1.511719 C 139.863281 1.792969 139.617188 2.03125 139.34375 2.328125 C 139.074219 2.617188 138.863281 2.898438 138.59375 3.242188 C 138.449219 3.445312 138.332031 3.640625 138.226562 3.855469 C 138.117188 4.078125 138.046875 4.308594 137.984375 4.539062 C 137.777344 5.261719 137.734375 5.984375 137.828125 6.703125 C 137.886719 7.160156 138.011719 7.609375 138.183594 8.050781 C 138.417969 8.648438 138.738281 9.21875 139.074219 9.808594 C 139.414062 10.277344 139.699219 10.675781 140.070312 11.058594 C 140.445312 11.441406 140.804688 11.746094 141.296875 12.066406 C 141.105469 11.667969 140.996094 11.316406 140.878906 10.929688 C 140.707031 10.363281 140.617188 9.835938 140.515625 9.203125 C 140.304688 8.496094 140.160156 7.808594 140.023438 7.132812 L 139.777344 5.867188 C 139.707031 5.390625 139.683594 4.917969 139.738281 4.40625 C 139.761719 4.1875 139.753906 3.972656 139.796875 3.738281 C 139.851562 3.242188 139.902344 2.847656 139.988281 2.402344 C 140.050781 2.097656 140.105469 1.832031 140.195312 1.511719 Z M 140.195312 1.511719 " fill-opacity="1" fill-rule="evenodd"/><path fill="#2f272a" d="M 124.109375 10.375 C 123.839844 10.90625 123.660156 11.328125 123.503906 11.886719 C 123.4375 12.125 123.402344 12.335938 123.378906 12.582031 C 123.34375 12.976562 123.394531 13.359375 123.453125 13.746094 C 123.511719 14.136719 123.597656 14.519531 123.746094 14.882812 C 123.894531 15.242188 124.105469 15.578125 124.339844 15.890625 C 124.574219 16.207031 124.804688 16.507812 125.105469 16.765625 C 125.292969 16.925781 125.46875 17.046875 125.679688 17.175781 C 126.167969 17.464844 126.585938 17.667969 127.132812 17.875 C 126.761719 17.1875 126.613281 16.574219 126.347656 15.875 C 126.230469 15.566406 126.113281 15.28125 125.992188 14.976562 C 125.878906 14.683594 125.796875 14.386719 125.683594 14.097656 C 125.570312 13.804688 125.421875 13.535156 125.304688 13.242188 C 125.1875 12.945312 125.078125 12.65625 124.953125 12.355469 C 124.816406 12.015625 124.652344 11.753906 124.511719 11.410156 C 124.359375 11.046875 124.234375 10.761719 124.109375 10.375 Z M 124.109375 10.375 " fill-opacity="1" fill-rule="evenodd"/><path fill="#2f272a" d="M 124.238281 10.3125 C 123.535156 10.71875 122.925781 11.117188 122.300781 11.632812 C 122.03125 11.851562 121.792969 12.066406 121.554688 12.320312 C 121.171875 12.726562 120.851562 13.179688 120.539062 13.644531 C 120.226562 14.105469 119.929688 14.578125 119.695312 15.082031 C 119.457031 15.585938 119.28125 16.113281 119.121094 16.644531 C 118.964844 17.179688 118.820312 17.703125 118.734375 18.253906 C 118.683594 18.589844 118.664062 18.910156 118.644531 19.25 C 118.601562 20.050781 118.613281 20.777344 118.648438 21.570312 C 119.113281 20.578125 119.664062 19.714844 120.1875 18.726562 C 120.433594 18.269531 120.648438 17.804688 120.882812 17.339844 C 121.109375 16.882812 121.359375 16.441406 121.582031 15.980469 C 121.800781 15.523438 121.988281 15.050781 122.207031 14.59375 C 122.425781 14.128906 122.652344 13.679688 122.871094 13.214844 C 123.007812 12.925781 123.117188 12.644531 123.246094 12.351562 C 123.5625 11.636719 123.84375 10.992188 124.238281 10.3125 Z M 124.238281 10.3125 " fill-opacity="1" fill-rule="evenodd"/><path fill="#2f272a" d="M 155.578125 0.308594 C 154.28125 0.730469 153.363281 1.789062 152.808594 3.0625 C 152.417969 3.960938 152.25 4.960938 152.28125 5.929688 C 152.292969 6.371094 152.371094 6.804688 152.476562 7.21875 C 152.574219 7.574219 152.640625 8 152.765625 8.390625 C 152.878906 8.757812 153.054688 9.089844 153.277344 9.367188 C 153.570312 9.734375 153.972656 9.984375 154.519531 10.105469 C 154.917969 10.1875 155.324219 10.121094 155.714844 9.980469 C 156.125 9.828125 156.511719 9.5625 156.824219 9.34375 C 157.269531 9.03125 157.652344 8.648438 158 8.234375 C 158.347656 7.816406 158.65625 7.367188 158.976562 6.925781 C 159.246094 6.550781 159.511719 6.179688 159.847656 5.875 C 160.742188 5.03125 161.734375 4.417969 162.785156 3.933594 C 163.28125 3.707031 163.785156 3.507812 164.304688 3.320312 C 165.535156 2.882812 166.800781 2.535156 168.125 2.269531 C 168.625 2.160156 169.226562 1.980469 169.832031 1.90625 C 170.234375 1.855469 170.621094 1.851562 170.976562 1.949219 C 170.640625 1.769531 170.246094 1.6875 169.832031 1.644531 C 169.214844 1.585938 168.582031 1.625 168.058594 1.621094 C 166.371094 1.625 164.722656 1.695312 163.140625 2.078125 C 161.484375 2.480469 159.953125 3.242188 158.535156 4.359375 C 158.261719 4.585938 158.007812 4.839844 157.773438 5.109375 C 157.363281 5.578125 157.011719 6.101562 156.640625 6.605469 C 156.335938 7.015625 156.039062 7.429688 155.632812 7.742188 C 155.5 7.851562 155.34375 7.980469 155.175781 8.085938 C 155.066406 8.152344 154.96875 8.265625 154.84375 8.246094 C 154.652344 8.222656 154.554688 8.089844 154.476562 7.9375 C 154.28125 7.542969 154.167969 7.078125 154.023438 6.703125 C 153.574219 5.691406 153.449219 4.46875 153.671875 3.328125 C 153.917969 2.085938 154.515625 0.960938 155.578125 0.308594 Z M 155.578125 0.308594 " fill-opacity="1" fill-rule="evenodd"/><path fill="#2f272a" d="M 155.769531 0.246094 C 155.152344 0.316406 154.71875 0.453125 154.210938 0.695312 C 153.980469 0.804688 153.800781 0.933594 153.605469 1.09375 C 153.289062 1.355469 153.070312 1.691406 152.851562 2.035156 C 152.640625 2.367188 152.464844 2.730469 152.363281 3.117188 C 152.261719 3.488281 152.226562 3.875 152.226562 4.261719 C 152.226562 4.640625 152.230469 5.011719 152.3125 5.382812 C 152.363281 5.617188 152.425781 5.808594 152.511719 6.03125 C 152.714844 6.554688 152.914062 6.957031 153.171875 7.441406 C 153.347656 6.738281 153.605469 6.183594 153.824219 5.472656 C 153.90625 5.210938 153.972656 4.964844 154.046875 4.703125 L 154.417969 3.515625 C 154.523438 3.125 154.597656 2.742188 154.753906 2.371094 C 154.808594 2.242188 154.851562 2.113281 154.90625 1.980469 C 154.96875 1.835938 154.988281 1.707031 155.054688 1.558594 C 155.253906 1.082031 155.414062 0.699219 155.769531 0.246094 Z M 155.769531 0.246094 " fill-opacity="1" fill-rule="evenodd"/><path fill="#2f272a" d="M 164.253906 2.714844 C 164.792969 2.855469 165.222656 2.980469 165.792969 3.097656 C 166.015625 3.144531 166.207031 3.1875 166.4375 3.210938 C 166.785156 3.242188 167.125 3.238281 167.476562 3.242188 C 167.8125 3.242188 168.148438 3.257812 168.480469 3.230469 C 168.8125 3.207031 169.132812 3.140625 169.460938 3.09375 C 169.792969 3.046875 170.109375 3.007812 170.4375 2.949219 C 171.191406 2.816406 171.785156 2.621094 172.550781 2.605469 C 172.105469 2.234375 171.71875 1.976562 171.210938 1.707031 C 170.992188 1.59375 170.800781 1.503906 170.566406 1.429688 C 170.203125 1.304688 169.835938 1.253906 169.453125 1.203125 C 169.082031 1.15625 168.710938 1.121094 168.335938 1.148438 C 167.972656 1.171875 167.613281 1.25 167.257812 1.332031 C 166.902344 1.417969 166.554688 1.5 166.21875 1.632812 C 166 1.714844 165.824219 1.8125 165.621094 1.921875 C 165.113281 2.191406 164.738281 2.441406 164.253906 2.714844 Z M 164.253906 2.714844 " fill-opacity="1" fill-rule="evenodd"/><path fill="#2f272a" d="M 172.101562 2.398438 C 171.0625 2.378906 170.0625 2.945312 169.242188 3.742188 C 168.382812 4.582031 167.796875 5.6875 167.558594 6.667969 C 167.429688 7.308594 167.339844 8.25 167.5625 9.015625 C 167.765625 9.714844 168.238281 10.25 168.992188 10.511719 C 169.226562 10.59375 169.464844 10.605469 169.707031 10.589844 C 170.054688 10.566406 170.410156 10.421875 170.730469 10.320312 C 171.113281 10.191406 171.460938 10.042969 171.789062 9.882812 C 172.265625 9.648438 172.703125 9.371094 173.1875 9.070312 C 173.566406 8.820312 174.019531 8.640625 174.480469 8.488281 C 174.984375 8.320312 175.5 8.179688 175.980469 8.089844 C 176.460938 7.996094 176.953125 7.964844 177.445312 7.96875 C 178.265625 7.976562 179.089844 8.058594 179.890625 8.125 C 181.257812 8.179688 182.589844 8.179688 183.9375 8.292969 C 184.511719 8.34375 185.070312 8.398438 185.640625 8.503906 C 185.839844 8.539062 186.023438 8.601562 186.203125 8.679688 C 186.667969 8.886719 187.078125 9.171875 187.5625 9.296875 C 187.121094 9.066406 186.78125 8.695312 186.375 8.390625 C 186.191406 8.253906 186 8.136719 185.78125 8.042969 C 185.035156 7.722656 184.292969 7.480469 183.527344 7.277344 C 182.394531 6.980469 181.257812 6.785156 180.105469 6.523438 C 179.265625 6.371094 178.410156 6.1875 177.546875 6.105469 C 176.917969 6.046875 176.289062 6.050781 175.664062 6.128906 C 174.964844 6.222656 174.195312 6.371094 173.480469 6.628906 C 172.960938 6.816406 172.472656 7.066406 172.046875 7.351562 C 171.636719 7.640625 171.265625 7.90625 170.859375 8.136719 C 170.617188 8.273438 170.363281 8.40625 170.074219 8.523438 L 169.515625 8.769531 C 169.257812 8.707031 169.15625 8.480469 169.089844 8.242188 C 168.960938 7.773438 168.941406 7.242188 168.964844 6.855469 C 168.984375 5.859375 169.425781 4.652344 170.160156 3.738281 C 170.695312 3.078125 171.34375 2.570312 172.101562 2.398438 Z M 172.101562 2.398438 " fill-opacity="1" fill-rule="evenodd"/><path fill="#2f272a" d="M 187.550781 9.867188 C 186.761719 8.640625 185.433594 8.601562 184.199219 9.074219 C 182.929688 9.5625 181.832031 10.683594 181.386719 11.746094 C 181.191406 12.269531 181.023438 13.316406 181.191406 14.117188 C 181.304688 14.660156 181.601562 15.082031 181.996094 15.347656 C 182.605469 15.757812 183.261719 15.945312 183.941406 16.015625 C 185.1875 16.136719 186.53125 15.734375 187.804688 15.734375 C 188.507812 15.710938 189.234375 15.675781 189.972656 15.636719 C 191.015625 15.578125 192.082031 15.515625 193.132812 15.527344 C 193.945312 15.535156 194.746094 15.585938 195.527344 15.699219 C 195.863281 15.746094 196.199219 15.789062 196.53125 15.863281 C 196.730469 15.910156 196.925781 15.964844 197.117188 16.03125 C 197.617188 16.207031 198.089844 16.425781 198.597656 16.613281 C 199.371094 16.894531 200.175781 17.1875 200.890625 17.628906 C 201.375 17.921875 201.804688 18.269531 202.152344 18.722656 C 201.898438 18.1875 201.539062 17.742188 201.113281 17.339844 C 200.476562 16.738281 199.71875 16.265625 198.988281 15.808594 C 198.589844 15.5625 198.226562 15.292969 197.832031 15.054688 C 197.546875 14.878906 197.246094 14.726562 196.929688 14.59375 C 195.769531 14.148438 194.519531 13.890625 193.234375 13.753906 C 192.132812 13.636719 191.011719 13.621094 189.914062 13.621094 C 189.179688 13.621094 188.460938 13.644531 187.757812 13.648438 C 186.6875 13.695312 185.582031 14.027344 184.515625 14.097656 C 183.972656 14.132812 183.4375 14.113281 182.9375 13.828125 C 182.945312 13.832031 182.957031 13.84375 182.953125 13.847656 C 182.886719 13.914062 182.851562 13.6875 182.824219 13.578125 C 182.785156 13.421875 182.761719 13.25 182.753906 13.082031 C 182.738281 12.734375 182.753906 12.398438 182.804688 12.183594 C 183.015625 11.132812 183.996094 9.941406 185.117188 9.472656 C 185.941406 9.125 186.816406 9.152344 187.550781 9.867188 Z M 187.550781 9.867188 " fill-opacity="1" fill-rule="evenodd"/><path fill="#2f272a" d="M 187.046875 9.171875 C 186.625 8.738281 186.339844 8.339844 185.925781 7.890625 C 185.757812 7.703125 185.597656 7.542969 185.402344 7.378906 C 184.957031 7.015625 184.445312 6.773438 183.917969 6.535156 C 183.558594 6.417969 183.171875 6.304688 182.757812 6.269531 C 182.214844 6.226562 181.648438 6.257812 181.085938 6.371094 C 180.710938 6.445312 180.378906 6.542969 180.03125 6.675781 C 179.453125 6.890625 179.007812 7.113281 178.523438 7.347656 C 179.191406 7.503906 179.816406 7.71875 180.589844 7.914062 C 180.773438 7.960938 180.941406 8 181.121094 8.03125 C 181.53125 8.105469 181.921875 8.1875 182.308594 8.265625 C 182.488281 8.304688 182.660156 8.347656 182.835938 8.378906 C 183.007812 8.410156 183.175781 8.421875 183.335938 8.460938 C 183.816406 8.539062 184.261719 8.699219 184.726562 8.828125 C 184.964844 8.894531 185.175781 8.921875 185.417969 8.964844 C 185.996094 9.066406 186.464844 9.128906 187.046875 9.171875 Z M 187.046875 9.171875 " fill-opacity="1" fill-rule="evenodd"/><path fill="#2f272a" d="M 201.863281 18.417969 C 201.597656 17.867188 201.367188 17.40625 201.035156 16.875 C 200.894531 16.652344 200.765625 16.457031 200.597656 16.257812 C 200.238281 15.828125 199.804688 15.480469 199.359375 15.144531 C 199.089844 14.9375 198.808594 14.75 198.503906 14.589844 C 198.304688 14.488281 198.089844 14.402344 197.871094 14.328125 C 197.375 14.164062 196.878906 14.027344 196.359375 13.984375 C 196.003906 13.957031 195.671875 13.964844 195.316406 13.996094 C 195.074219 14.039062 194.859375 14.066406 194.621094 14.160156 C 194.140625 14.339844 193.746094 14.570312 193.277344 14.734375 C 193.742188 14.878906 194.1875 14.941406 194.671875 15.066406 C 194.847656 15.113281 194.992188 15.183594 195.152344 15.257812 C 195.398438 15.351562 195.605469 15.476562 195.84375 15.578125 C 196.375 15.804688 196.859375 16.09375 197.375 16.359375 C 197.742188 16.546875 198.125 16.707031 198.496094 16.894531 C 198.882812 17.09375 199.253906 17.292969 199.648438 17.476562 C 200.421875 17.835938 201.121094 18.046875 201.863281 18.417969 Z M 201.863281 18.417969 " fill-opacity="1" fill-rule="evenodd"/><path fill="#2f272a" d="M 201.925781 18.984375 C 201.398438 18.546875 200.910156 17.972656 200.308594 17.558594 C 200.003906 17.34375 199.675781 17.222656 199.324219 17.132812 C 198.960938 17.046875 198.574219 16.921875 198.148438 16.835938 C 197.730469 16.75 197.292969 16.707031 196.859375 16.6875 C 196.164062 16.65625 195.496094 16.757812 194.902344 16.992188 C 193.8125 17.46875 193.332031 18.265625 193.222656 19.152344 C 193.164062 19.617188 193.21875 20.109375 193.351562 20.59375 C 193.511719 21.199219 193.777344 21.789062 193.988281 22.273438 C 194.113281 22.542969 194.226562 22.816406 194.375 23.070312 C 194.488281 23.265625 194.605469 23.453125 194.746094 23.625 C 194.941406 23.839844 195.191406 24.179688 195.460938 24.429688 C 195.625 24.582031 195.773438 24.71875 195.933594 24.792969 L 198.320312 25.839844 L 196.488281 23.996094 L 195.972656 22.835938 L 195.628906 21.691406 C 195.46875 21.121094 195.265625 20.386719 195.253906 19.710938 C 195.25 19.347656 195.320312 18.996094 195.742188 18.789062 C 196.085938 18.605469 196.488281 18.515625 196.910156 18.46875 C 197.28125 18.433594 197.65625 18.425781 198.027344 18.40625 C 198.464844 18.386719 198.871094 18.347656 199.246094 18.3125 C 199.582031 18.269531 199.902344 18.300781 200.238281 18.398438 C 200.828125 18.566406 201.378906 18.824219 201.925781 18.984375 Z M 201.925781 18.984375 " fill-opacity="1" fill-rule="evenodd"/><path fill="#2f272a" d="M 194.835938 22.277344 C 194.859375 22.535156 194.914062 22.777344 194.996094 23.023438 C 195.082031 23.273438 195.199219 23.503906 195.339844 23.730469 C 195.59375 24.136719 195.910156 24.726562 196.292969 25.203125 C 196.496094 25.460938 196.734375 25.652344 196.972656 25.804688 C 197.511719 26.132812 198.011719 26.328125 198.519531 26.464844 C 199.238281 26.65625 199.957031 26.683594 200.808594 26.804688 C 201.179688 26.855469 201.554688 26.949219 201.9375 27.046875 C 202.53125 27.199219 203.125 27.382812 203.664062 27.582031 C 203.859375 27.640625 204.046875 27.730469 204.230469 27.832031 C 204.597656 28.035156 204.949219 28.265625 205.269531 28.460938 L 207.429688 29.648438 C 207.960938 29.953125 208.460938 30.324219 208.957031 30.742188 C 209.730469 31.398438 210.449219 32.09375 211.15625 32.753906 C 210.679688 31.898438 210.21875 30.988281 209.660156 30.125 C 209.265625 29.511719 208.828125 28.96875 208.347656 28.472656 C 208.148438 28.285156 207.9375 28.109375 207.726562 27.941406 C 207.265625 27.578125 206.773438 27.261719 206.308594 26.902344 C 205.929688 26.621094 205.519531 26.273438 205.078125 25.996094 C 204.847656 25.851562 204.605469 25.734375 204.363281 25.636719 C 203.851562 25.457031 203.296875 25.265625 202.730469 25.136719 C 202.136719 25 201.539062 24.921875 200.964844 24.898438 C 200.160156 24.882812 199.492188 24.910156 198.796875 24.855469 C 198.386719 24.820312 197.96875 24.789062 197.5 24.640625 C 197.277344 24.578125 197.042969 24.464844 196.824219 24.300781 C 196.40625 24 196.023438 23.644531 195.71875 23.394531 C 195.53125 23.246094 195.367188 23.089844 195.21875 22.898438 C 195.066406 22.707031 194.9375 22.503906 194.835938 22.277344 Z M 194.835938 22.277344 " fill-opacity="1" fill-rule="evenodd"/><path fill="#2f272a" d="M 201.796875 18.671875 C 201.824219 18.261719 201.839844 18.273438 201.828125 17.875 C 201.824219 17.734375 201.828125 17.699219 201.792969 17.570312 C 201.753906 17.421875 201.6875 17.320312 201.609375 17.1875 C 201.539062 17.070312 201.476562 16.957031 201.371094 16.871094 C 201.265625 16.785156 201.140625 16.75 201.015625 16.707031 C 200.867188 16.65625 200.761719 16.617188 200.609375 16.605469 C 200.101562 16.578125 200.0625 16.671875 199.550781 16.726562 C 199.59375 17.242188 199.511719 17.300781 199.644531 17.789062 C 199.679688 17.9375 199.734375 18.03125 199.8125 18.164062 C 199.878906 18.277344 199.925781 18.386719 200.027344 18.472656 C 200.121094 18.554688 200.238281 18.589844 200.351562 18.636719 C 200.484375 18.691406 200.582031 18.734375 200.726562 18.75 C 201.242188 18.8125 201.265625 18.6875 201.796875 18.671875 Z M 201.796875 18.671875 " fill-opacity="1" fill-rule="evenodd"/><path fill="#2f272a" d="M 210.980469 32.285156 C 210.246094 31.867188 209.683594 31.300781 209.003906 30.804688 C 208.6875 30.570312 208.363281 30.394531 208.007812 30.21875 C 207.609375 30.058594 207.144531 29.941406 206.636719 29.863281 C 205.953125 29.761719 205.222656 29.78125 204.585938 29.832031 C 203.9375 29.902344 203.308594 30.195312 202.816406 30.648438 C 202.503906 30.9375 202.25 31.289062 202.078125 31.675781 C 201.621094 32.695312 201.628906 33.898438 202.496094 34.808594 C 202.6875 35 202.863281 35.179688 203.058594 35.335938 C 203.578125 35.75 204.074219 36.042969 204.628906 36.261719 C 205.359375 36.550781 206.097656 36.691406 207.046875 36.761719 C 206.253906 36.351562 205.675781 35.953125 205.136719 35.449219 C 204.824219 35.15625 204.578125 34.828125 204.296875 34.453125 C 204.132812 34.230469 203.972656 34 203.804688 33.738281 C 203.542969 33.367188 203.679688 32.945312 203.882812 32.597656 C 203.976562 32.441406 204.101562 32.308594 204.238281 32.183594 C 204.425781 32.011719 204.632812 31.84375 204.875 31.800781 C 205.304688 31.707031 205.785156 31.640625 206.261719 31.613281 C 206.597656 31.589844 206.925781 31.582031 207.234375 31.59375 C 207.371094 31.601562 207.503906 31.589844 207.628906 31.601562 C 207.953125 31.628906 208.253906 31.675781 208.566406 31.75 C 209.386719 31.945312 210.140625 32.203125 210.980469 32.285156 Z M 210.980469 32.285156 " fill-opacity="1" fill-rule="evenodd"/><path fill="#2f272a" d="M 214.953125 45.433594 C 214.503906 45.28125 214.0625 45.140625 213.605469 45.046875 C 213.113281 44.945312 212.609375 44.882812 212.074219 44.914062 C 211.820312 44.933594 211.476562 44.949219 211.195312 45.058594 C 210.996094 45.136719 210.8125 45.226562 210.679688 45.371094 C 210.15625 45.929688 209.730469 46.445312 209.589844 47.0625 C 209.496094 47.488281 209.488281 47.949219 209.691406 48.484375 C 209.742188 48.613281 209.816406 48.828125 209.914062 48.992188 C 209.984375 49.109375 210.058594 49.210938 210.144531 49.277344 C 210.964844 49.859375 211.5 50.261719 212.046875 50.625 C 212.457031 50.898438 212.859375 51.144531 213.386719 51.421875 C 212.933594 51.042969 212.59375 50.722656 212.25 50.378906 C 211.792969 49.914062 211.347656 49.414062 210.664062 48.679688 L 210.585938 48.238281 C 210.511719 47.824219 210.609375 47.519531 210.78125 47.25 C 210.96875 46.949219 211.273438 46.71875 211.613281 46.464844 C 211.597656 46.34375 211.957031 46.480469 212.085938 46.488281 C 212.472656 46.507812 212.832031 46.59375 213.183594 46.703125 C 213.777344 46.882812 214.339844 47.152344 214.9375 47.410156 C 215.222656 47.527344 215.488281 47.628906 215.761719 47.71875 C 216.027344 47.808594 216.300781 47.886719 216.601562 47.964844 C 216.640625 47.976562 217.144531 47.953125 217.324219 47.894531 C 218.121094 47.625 217.984375 46.8125 217.9375 46.648438 C 217.808594 46.207031 217.597656 45.753906 217.339844 45.3125 C 217.023438 44.761719 216.625 44.234375 216.324219 43.75 C 215.351562 42.296875 214.199219 40.875 212.882812 39.613281 C 212.363281 39.117188 211.828125 38.636719 211.257812 38.207031 C 210.386719 37.546875 209.464844 36.996094 208.523438 36.507812 C 207.457031 35.984375 206.296875 35.992188 205.195312 35.644531 C 204.761719 35.511719 204.347656 35.320312 203.953125 35.007812 C 204.28125 35.414062 204.660156 35.699219 205.070312 35.9375 C 206.015625 36.476562 207.09375 36.683594 207.96875 37.378906 C 208.761719 37.984375 209.488281 38.679688 210.21875 39.40625 C 210.691406 39.875 211.15625 40.355469 211.605469 40.851562 C 212.730469 42.109375 213.742188 43.464844 214.566406 44.859375 C 214.6875 45.042969 214.816406 45.234375 214.953125 45.433594 Z M 211.613281 46.464844 C 211.613281 46.46875 211.613281 46.472656 211.613281 46.476562 C 211.621094 46.492188 211.628906 46.449219 211.640625 46.441406 Z M 211.613281 46.464844 " fill-opacity="1" fill-rule="evenodd"/><g clip-path="url(#8bd1651e4b)"><path fill="#2f272a" d="M 209.96875 47.796875 C 209.917969 48.523438 210.191406 49.140625 210.59375 49.769531 C 210.878906 50.210938 211.21875 50.601562 211.59375 50.976562 C 211.949219 51.328125 212.328125 51.625 212.628906 51.929688 L 216.378906 56.023438 C 216.839844 56.476562 217.191406 56.847656 217.46875 57.335938 C 217.65625 57.664062 217.816406 57.988281 217.941406 58.417969 C 217.980469 58.558594 218.042969 58.691406 218.078125 58.835938 C 218.097656 58.925781 218.105469 59.015625 218.078125 59.109375 C 218.132812 59.046875 218.164062 58.984375 218.1875 58.910156 C 218.242188 58.746094 218.234375 58.570312 218.261719 58.398438 C 218.363281 57.761719 218.339844 57.257812 218.246094 56.726562 C 218.144531 56.191406 217.933594 55.710938 217.675781 55.132812 C 217.394531 54.628906 217.09375 54.101562 216.746094 53.585938 C 216.410156 53.082031 216.054688 52.582031 215.648438 52.136719 C 215.070312 51.496094 214.410156 50.964844 213.785156 50.511719 C 213.425781 50.273438 213.023438 50.011719 212.574219 49.785156 C 211.984375 49.484375 211.371094 49.257812 210.863281 48.863281 C 210.476562 48.558594 210.160156 48.246094 209.96875 47.796875 Z M 209.96875 47.796875 " fill-opacity="1" fill-rule="evenodd"/></g><g clip-path="url(#008a8146c5)"><path fill="#2f272a" d="M 217.628906 59.445312 C 217.78125 59.035156 217.929688 58.710938 218.09375 58.183594 C 218.152344 58 218.195312 57.839844 218.226562 57.636719 C 218.273438 57.339844 218.261719 57.042969 218.253906 56.730469 C 218.242188 56.421875 218.226562 56.113281 218.148438 55.8125 C 218.070312 55.5 217.941406 55.210938 217.792969 54.933594 C 217.628906 54.628906 217.480469 54.34375 217.257812 54.105469 C 217.101562 53.941406 216.976562 53.820312 216.792969 53.699219 C 216.351562 53.394531 216.019531 53.210938 215.523438 53.113281 C 215.738281 53.511719 215.765625 53.855469 215.851562 54.332031 C 215.898438 54.585938 215.886719 54.816406 215.933594 55.089844 C 215.992188 55.449219 216.015625 55.8125 216.09375 56.183594 C 216.148438 56.433594 216.234375 56.671875 216.3125 56.910156 C 216.425781 57.261719 216.527344 57.59375 216.679688 57.914062 C 216.996094 58.578125 217.332031 58.960938 217.628906 59.445312 Z M 217.628906 59.445312 " fill-opacity="1" fill-rule="evenodd"/></g><g clip-path="url(#0154623ca4)"><path fill="#2f272a" d="M 136.222656 26.480469 C 135.058594 27.210938 133.988281 27.984375 132.949219 28.828125 C 131.910156 29.675781 130.9375 30.578125 129.945312 31.539062 C 129.566406 31.914062 129.175781 32.28125 128.796875 32.664062 C 127.910156 33.546875 127.035156 34.457031 126.179688 35.382812 C 125.347656 36.28125 124.554688 37.203125 123.800781 38.160156 C 123.269531 38.855469 122.792969 39.605469 122.375 40.386719 C 121.78125 41.496094 121.296875 42.675781 120.75 43.785156 C 119.980469 45.414062 119.191406 47.0625 118.546875 48.765625 C 118.265625 49.503906 118.023438 50.246094 117.804688 51 C 117.074219 53.507812 116.648438 56.0625 116.734375 58.707031 C 117.007812 56.652344 117.605469 54.722656 118.375 52.828125 C 118.835938 51.707031 119.367188 50.621094 119.910156 49.527344 C 120.726562 47.886719 121.582031 46.261719 122.472656 44.671875 C 123.144531 43.421875 123.78125 42.105469 124.503906 40.855469 C 124.796875 40.347656 125.09375 39.847656 125.433594 39.378906 C 125.9375 38.664062 126.476562 37.976562 127.023438 37.289062 C 127.933594 36.152344 128.886719 35.054688 129.804688 33.929688 C 130.207031 33.441406 130.589844 32.941406 130.976562 32.445312 C 131.941406 31.136719 132.917969 29.921875 133.980469 28.753906 C 134.691406 27.96875 135.421875 27.214844 136.222656 26.480469 Z M 136.222656 26.480469 " fill-opacity="1" fill-rule="evenodd"/></g><path fill="#2f272a" d="M 133.128906 36.867188 C 132.078125 37.785156 131.089844 38.6875 130.136719 39.667969 C 129.722656 40.09375 129.324219 40.515625 128.945312 40.96875 C 128.3125 41.722656 127.742188 42.511719 127.183594 43.3125 C 126.625 44.117188 126.082031 44.929688 125.601562 45.78125 C 125.117188 46.632812 124.699219 47.515625 124.300781 48.410156 C 123.898438 49.300781 123.511719 50.195312 123.195312 51.125 C 122.566406 52.96875 122.148438 54.84375 121.730469 56.789062 C 122.097656 56.089844 122.464844 55.425781 122.847656 54.746094 C 123.191406 54.132812 123.539062 53.550781 123.886719 52.945312 C 124.234375 52.34375 124.578125 51.753906 124.921875 51.15625 C 125.527344 50.078125 126.136719 49.015625 126.75 47.953125 C 127.160156 47.242188 127.566406 46.535156 127.972656 45.824219 C 128.558594 44.785156 129.144531 43.75 129.753906 42.714844 C 130.011719 42.273438 130.273438 41.835938 130.527344 41.382812 C 131.375 39.867188 132.175781 38.367188 133.128906 36.867188 Z M 133.128906 36.867188 " fill-opacity="1" fill-rule="evenodd"/><path fill="#2f272a" d="M 127.8125 49.851562 C 127.375 50.113281 127.078125 50.292969 126.683594 50.601562 C 126.523438 50.726562 126.398438 50.832031 126.261719 50.980469 C 126.050781 51.210938 125.898438 51.460938 125.734375 51.722656 C 125.574219 51.980469 125.417969 52.234375 125.3125 52.515625 C 125.203125 52.796875 125.148438 53.089844 125.097656 53.386719 C 125.042969 53.683594 124.988281 53.96875 124.988281 54.277344 C 124.996094 54.960938 125.132812 55.460938 125.242188 56.144531 C 125.671875 55.617188 126.054688 55.285156 126.445312 54.738281 C 126.617188 54.503906 126.742188 54.261719 126.882812 54.007812 C 127.011719 53.765625 127.15625 53.535156 127.257812 53.277344 C 127.359375 53.023438 127.417969 52.757812 127.488281 52.496094 C 127.5625 52.226562 127.632812 51.96875 127.683594 51.691406 C 127.71875 51.503906 127.71875 51.351562 127.734375 51.164062 C 127.769531 50.679688 127.757812 50.34375 127.8125 49.851562 Z M 127.8125 49.851562 " fill-opacity="1" fill-rule="evenodd"/><path fill="#2f272a" d="M 129.667969 51.953125 C 129.152344 52.183594 129.25 51.996094 128.78125 52.3125 C 128.6875 52.378906 128.636719 52.429688 128.566406 52.523438 C 128.507812 52.59375 128.441406 52.65625 128.421875 52.75 C 128.398438 52.84375 128.429688 52.925781 128.449219 53.019531 C 128.472656 53.144531 128.492188 53.207031 128.550781 53.320312 C 128.796875 53.796875 128.800781 53.625 129.121094 54.058594 C 129.640625 53.894531 129.542969 54.023438 130.015625 53.757812 C 130.132812 53.6875 130.175781 53.632812 130.269531 53.53125 C 130.34375 53.453125 130.410156 53.386719 130.441406 53.28125 C 130.46875 53.179688 130.449219 53.082031 130.429688 52.976562 C 130.40625 52.851562 130.402344 52.769531 130.335938 52.660156 C 130.042969 52.167969 130.078125 52.355469 129.667969 51.953125 Z M 129.667969 51.953125 " fill-opacity="1" fill-rule="evenodd"/><path fill="#2f272a" d="M 171.464844 20.914062 C 172.0625 21.179688 172.617188 21.496094 173.15625 21.839844 C 174.429688 22.652344 175.582031 23.617188 176.835938 24.484375 C 177.890625 25.175781 178.972656 25.785156 180.007812 26.496094 C 180.417969 26.777344 180.820312 27.074219 181.207031 27.40625 C 182.605469 28.601562 183.820312 30.054688 185.144531 31.367188 C 185.496094 31.714844 185.855469 32.046875 186.222656 32.367188 C 187.097656 33.097656 188.027344 33.753906 188.886719 34.503906 C 189.222656 34.800781 189.554688 35.105469 189.855469 35.445312 C 190.386719 36.035156 190.882812 36.675781 191.355469 37.339844 C 191.691406 37.808594 192.015625 38.289062 192.335938 38.769531 C 193.113281 39.929688 193.867188 41.09375 194.589844 42.210938 C 195.214844 43.15625 195.929688 44.066406 196.558594 45.027344 C 196.828125 45.441406 197.078125 45.855469 197.300781 46.289062 C 197.15625 45.820312 196.984375 45.363281 196.785156 44.90625 C 196.335938 43.855469 195.789062 42.84375 195.339844 41.808594 C 194.660156 40.304688 193.996094 38.699219 193.183594 37.183594 C 192.621094 36.140625 191.972656 35.160156 191.273438 34.257812 C 190.832031 33.695312 190.339844 33.195312 189.820312 32.71875 C 189.097656 32.058594 188.320312 31.457031 187.589844 30.796875 C 186.351562 29.75 185.222656 28.542969 184.019531 27.4375 C 183.476562 26.933594 182.914062 26.457031 182.332031 26.019531 C 181.710938 25.550781 181.0625 25.148438 180.386719 24.804688 C 179.414062 24.3125 178.40625 23.929688 177.417969 23.457031 C 176.226562 22.917969 175.109375 22.296875 173.925781 21.769531 C 173.132812 21.421875 172.328125 21.117188 171.464844 20.914062 Z M 171.464844 20.914062 " fill-opacity="1" fill-rule="evenodd"/><path fill="#2f272a" d="M 185.441406 34.394531 C 185.863281 35.089844 186.246094 35.78125 186.65625 36.5 C 187.050781 37.203125 187.410156 37.902344 187.816406 38.609375 C 188.167969 39.226562 188.539062 39.828125 188.898438 40.445312 C 189.25 41.058594 189.589844 41.675781 189.933594 42.292969 C 190.160156 42.703125 190.386719 43.113281 190.613281 43.523438 C 190.84375 43.929688 191.082031 44.335938 191.308594 44.742188 C 191.820312 45.660156 192.277344 46.589844 192.742188 47.523438 C 193.46875 48.980469 194.167969 50.378906 194.667969 51.917969 C 194.664062 50.703125 194.578125 49.539062 194.390625 48.339844 C 194.308594 47.824219 194.214844 47.324219 194.082031 46.816406 C 193.871094 45.984375 193.578125 45.175781 193.253906 44.371094 C 192.9375 43.574219 192.585938 42.785156 192.171875 42.03125 C 191.757812 41.28125 191.277344 40.570312 190.777344 39.871094 C 190.28125 39.175781 189.769531 38.492188 189.207031 37.851562 C 188.859375 37.460938 188.503906 37.105469 188.132812 36.746094 C 187.253906 35.902344 186.363281 35.152344 185.441406 34.394531 Z M 185.441406 34.394531 " fill-opacity="1" fill-rule="evenodd"/><path fill="#2f272a" d="M 186.921875 42.308594 C 187.015625 43.058594 187.070312 43.761719 187.160156 44.566406 C 187.195312 44.886719 187.222656 45.1875 187.277344 45.511719 C 187.367188 46.015625 187.480469 46.511719 187.589844 47.027344 C 187.695312 47.523438 187.785156 48.023438 187.910156 48.519531 C 188.035156 49.015625 188.195312 49.496094 188.332031 49.980469 C 188.472656 50.480469 188.59375 50.96875 188.742188 51.453125 C 189.066406 52.523438 189.421875 53.464844 189.597656 54.503906 C 189.839844 53.765625 190.019531 53.0625 190.152344 52.261719 C 190.203125 51.929688 190.246094 51.613281 190.261719 51.273438 C 190.285156 50.726562 190.246094 50.183594 190.191406 49.632812 C 190.136719 49.089844 190.066406 48.550781 189.941406 48.019531 C 189.808594 47.492188 189.625 46.984375 189.429688 46.476562 C 189.234375 45.96875 189.035156 45.472656 188.785156 44.996094 C 188.628906 44.699219 188.460938 44.433594 188.277344 44.160156 C 187.824219 43.480469 187.386719 42.914062 186.921875 42.308594 Z M 186.921875 42.308594 " fill-opacity="1" fill-rule="evenodd"/><g clip-path="url(#5164f6268f)"><path fill="#2f272a" d="M 199.167969 49.109375 C 199.019531 49.695312 198.882812 50.195312 198.761719 50.824219 C 198.710938 51.074219 198.667969 51.296875 198.644531 51.550781 C 198.609375 51.945312 198.613281 52.332031 198.613281 52.730469 C 198.613281 53.117188 198.601562 53.5 198.628906 53.882812 C 198.660156 54.265625 198.730469 54.632812 198.78125 55.007812 C 198.832031 55.390625 198.878906 55.757812 198.945312 56.132812 C 199.097656 56.984375 199.316406 57.679688 199.335938 58.5 C 199.691406 57.992188 199.949219 57.527344 200.207031 56.941406 C 200.316406 56.695312 200.398438 56.472656 200.472656 56.210938 C 200.582031 55.808594 200.628906 55.398438 200.671875 54.972656 C 200.710938 54.5625 200.742188 54.152344 200.714844 53.734375 C 200.6875 53.328125 200.605469 52.933594 200.519531 52.53125 C 200.4375 52.132812 200.355469 51.746094 200.222656 51.363281 C 200.144531 51.121094 200.046875 50.914062 199.941406 50.683594 C 199.675781 50.101562 199.421875 49.652344 199.167969 49.109375 Z M 199.167969 49.109375 " fill-opacity="1" fill-rule="evenodd"/></g><path fill="#2f272a" d="M 158.109375 22.523438 C 158.703125 22.792969 159.160156 23.003906 159.714844 23.210938 C 159.90625 23.277344 160.070312 23.335938 160.257812 23.386719 C 160.441406 23.433594 160.613281 23.46875 160.796875 23.5 C 161.328125 23.585938 161.824219 23.671875 162.324219 23.726562 C 162.519531 23.75 162.71875 23.757812 162.914062 23.765625 C 163.207031 23.777344 163.496094 23.773438 163.785156 23.785156 C 164.082031 23.804688 164.359375 23.824219 164.660156 23.839844 C 165.398438 23.878906 166.046875 23.859375 166.878906 24.0625 C 166.480469 23.546875 166.132812 23.1875 165.6875 22.816406 C 165.480469 22.644531 165.292969 22.511719 165.066406 22.378906 C 164.695312 22.167969 164.304688 22.039062 163.90625 21.917969 C 163.519531 21.796875 163.125 21.703125 162.710938 21.667969 C 162.324219 21.632812 161.929688 21.65625 161.53125 21.683594 C 161.152344 21.714844 160.777344 21.742188 160.382812 21.820312 C 160.148438 21.867188 159.945312 21.929688 159.707031 22.003906 C 159.160156 22.167969 158.710938 22.34375 158.109375 22.523438 Z M 158.109375 22.523438 " fill-opacity="1" fill-rule="evenodd"/><path fill="#2f272a" d="M 105.304688 42.058594 C 105.457031 42.644531 105.621094 43.070312 105.894531 43.566406 C 106.019531 43.789062 106.148438 43.957031 106.308594 44.148438 C 106.574219 44.449219 106.898438 44.667969 107.226562 44.886719 C 107.558594 45.101562 107.910156 45.289062 108.289062 45.40625 C 108.660156 45.523438 109.046875 45.574219 109.441406 45.589844 C 109.824219 45.609375 110.203125 45.617188 110.585938 45.546875 C 110.824219 45.5 111.023438 45.441406 111.253906 45.355469 C 111.78125 45.164062 112.191406 44.96875 112.6875 44.683594 C 111.953125 44.53125 111.402344 44.269531 110.714844 44.035156 C 110.453125 43.949219 110.207031 43.875 109.953125 43.792969 L 108.761719 43.367188 C 108.363281 43.246094 107.960938 43.148438 107.574219 42.984375 C 107.433594 42.925781 107.300781 42.878906 107.160156 42.824219 C 107.007812 42.761719 106.867188 42.734375 106.710938 42.679688 C 106.207031 42.492188 105.796875 42.355469 105.304688 42.058594 Z M 105.304688 42.058594 " fill-opacity="1" fill-rule="evenodd"/><path fill="#2f272a" d="M 112.972656 27.59375 C 112.820312 28.203125 112.722656 28.722656 112.6875 29.355469 C 112.671875 29.628906 112.679688 29.867188 112.710938 30.136719 C 112.765625 30.578125 112.910156 30.988281 113.0625 31.394531 C 113.230469 31.824219 113.4375 32.230469 113.703125 32.585938 C 113.871094 32.8125 114.070312 33.007812 114.28125 33.1875 C 114.800781 33.617188 115.355469 33.988281 116.011719 34.128906 C 116.292969 34.191406 116.550781 34.222656 116.851562 34.207031 C 117.453125 34.171875 117.984375 34.066406 118.617188 33.765625 C 117.785156 33.589844 117.269531 33.210938 116.699219 32.792969 C 116.363281 32.542969 116.089844 32.257812 115.824219 31.941406 C 115.707031 31.800781 115.609375 31.644531 115.496094 31.5 C 115.382812 31.351562 115.269531 31.203125 115.160156 31.054688 C 114.914062 30.726562 114.671875 30.394531 114.457031 30.027344 C 114.363281 29.863281 114.273438 29.707031 114.171875 29.546875 C 113.738281 28.867188 113.308594 28.320312 112.972656 27.59375 Z M 112.972656 27.59375 " fill-opacity="1" fill-rule="evenodd"/><path fill="#2f272a" d="M 123.238281 17.078125 C 123.121094 17.539062 122.929688 18.234375 122.859375 19.089844 C 122.832031 19.394531 122.84375 19.6875 122.875 19.984375 C 122.933594 20.550781 123.121094 21.054688 123.324219 21.460938 C 123.476562 21.765625 123.695312 21.988281 123.902344 22.167969 C 124.25 22.414062 124.550781 22.636719 124.839844 22.800781 C 125.511719 23.175781 126.046875 23.390625 126.582031 23.457031 C 126.914062 23.5 127.210938 23.515625 127.550781 23.457031 C 128.128906 23.359375 128.660156 23.164062 129.496094 22.835938 C 128.550781 22.601562 128.015625 22.410156 127.457031 22.152344 C 127.332031 22.09375 127.230469 22.019531 127.105469 21.953125 C 126.851562 21.820312 126.617188 21.640625 126.328125 21.425781 C 126.117188 21.265625 125.902344 21.070312 125.632812 20.867188 C 125.480469 20.75 125.304688 20.640625 125.125 20.511719 C 124.945312 20.402344 124.796875 20.175781 124.660156 19.898438 C 124.5625 19.695312 124.464844 19.492188 124.363281 19.277344 C 124.289062 19.125 124.207031 18.992188 124.125 18.84375 C 123.734375 18.109375 123.417969 17.5 123.238281 17.078125 Z M 123.238281 17.078125 " fill-opacity="1" fill-rule="evenodd"/><path fill="#2f272a" d="M 136.839844 10.03125 C 136.503906 10.457031 136.34375 10.839844 136.195312 11.398438 C 136.136719 11.621094 136.121094 11.820312 136.121094 12.0625 C 136.117188 12.425781 136.222656 12.773438 136.332031 13.132812 C 136.4375 13.476562 136.582031 13.816406 136.789062 14.117188 C 136.953125 14.363281 137.15625 14.574219 137.378906 14.765625 C 137.722656 15.0625 138.066406 15.335938 138.476562 15.492188 C 138.703125 15.574219 138.898438 15.632812 139.132812 15.65625 C 139.695312 15.71875 140.117188 15.710938 140.625 15.527344 C 140.199219 15.3125 139.96875 15.019531 139.636719 14.640625 C 139.457031 14.4375 139.351562 14.222656 139.179688 13.996094 C 138.96875 13.710938 138.804688 13.394531 138.605469 13.085938 C 138.507812 12.933594 138.398438 12.792969 138.300781 12.644531 C 138.199219 12.492188 138.085938 12.355469 137.988281 12.203125 C 137.878906 12.019531 137.769531 11.851562 137.667969 11.671875 C 137.621094 11.585938 137.5625 11.523438 137.507812 11.441406 C 137.1875 10.9375 136.9375 10.578125 136.839844 10.03125 Z M 136.839844 10.03125 " fill-opacity="1" fill-rule="evenodd"/><path fill="#2f272a" d="M 151.183594 7.558594 C 150.960938 8.027344 150.796875 8.363281 150.632812 8.855469 C 150.5625 9.058594 150.519531 9.230469 150.488281 9.445312 C 150.4375 9.785156 150.46875 10.117188 150.503906 10.453125 C 150.539062 10.8125 150.617188 11.160156 150.753906 11.484375 C 150.835938 11.6875 150.953125 11.878906 151.085938 12.054688 C 151.40625 12.460938 151.738281 12.855469 152.226562 13.097656 C 152.433594 13.195312 152.613281 13.269531 152.847656 13.316406 C 153.324219 13.414062 153.710938 13.453125 154.285156 13.402344 C 153.851562 13.003906 153.652344 12.65625 153.390625 12.242188 C 153.304688 12.105469 153.261719 11.972656 153.179688 11.84375 C 153.003906 11.558594 152.90625 11.273438 152.789062 10.980469 C 152.746094 10.867188 152.714844 10.753906 152.667969 10.644531 C 152.59375 10.476562 152.503906 10.3125 152.429688 10.136719 C 152.292969 9.824219 152.183594 9.507812 152.039062 9.183594 C 151.769531 8.578125 151.460938 8.171875 151.183594 7.558594 Z M 151.183594 7.558594 " fill-opacity="1" fill-rule="evenodd"/><path fill="#2f272a" d="M 165.53125 6.324219 C 165.273438 6.667969 164.960938 6.992188 164.597656 7.523438 C 164.472656 7.707031 164.375 7.875 164.277344 8.089844 C 164.066406 8.546875 163.972656 9.046875 163.914062 9.539062 C 163.890625 9.761719 163.890625 9.984375 163.914062 10.195312 C 163.933594 10.351562 163.964844 10.507812 164.015625 10.65625 C 164.230469 11.28125 164.566406 11.824219 165.148438 12.167969 C 165.453125 12.292969 165.714844 12.414062 166.035156 12.511719 C 166.527344 12.664062 166.921875 12.734375 167.425781 12.863281 C 167.164062 12.417969 166.980469 12.066406 166.695312 11.632812 C 166.527344 11.371094 166.367188 11.148438 166.195312 10.890625 C 166.054688 10.730469 166.066406 10.515625 166.023438 10.3125 C 166.003906 10.203125 166.007812 10.09375 165.992188 9.976562 C 165.984375 9.894531 165.964844 9.808594 165.953125 9.722656 C 165.90625 9.359375 165.886719 8.984375 165.871094 8.597656 C 165.855469 8.289062 165.808594 8.023438 165.773438 7.734375 C 165.703125 7.132812 165.609375 6.726562 165.53125 6.324219 Z M 165.53125 6.324219 " fill-opacity="1" fill-rule="evenodd"/><path fill="#2f272a" d="M 179.75 10.03125 C 179.09375 9.996094 178.734375 10.21875 178.261719 10.574219 C 178.140625 10.664062 178.066406 10.765625 177.972656 10.894531 C 177.707031 11.234375 177.59375 11.671875 177.496094 12.132812 C 177.433594 12.425781 177.402344 12.742188 177.425781 13.050781 C 177.464844 13.496094 177.601562 13.917969 177.746094 14.324219 C 177.789062 14.4375 177.824219 14.539062 177.878906 14.640625 C 177.96875 14.816406 178.050781 14.941406 178.152344 15.089844 C 178.492188 15.59375 178.738281 15.878906 178.914062 16.171875 C 179.054688 15.789062 179.203125 15.320312 179.351562 14.574219 C 179.382812 14.421875 179.40625 14.285156 179.421875 14.125 C 179.449219 13.800781 179.488281 13.480469 179.492188 13.140625 C 179.5 12.933594 179.488281 12.722656 179.480469 12.519531 C 179.464844 12.214844 179.414062 11.9375 179.421875 11.65625 C 179.425781 11.441406 179.359375 11.277344 179.390625 11.078125 C 179.417969 10.921875 179.386719 10.804688 179.441406 10.648438 C 179.523438 10.410156 179.578125 10.25 179.75 10.03125 Z M 179.75 10.03125 " fill-opacity="1" fill-rule="evenodd"/><path fill="#2f272a" d="M 190.878906 17.699219 C 190.335938 17.816406 190.007812 17.980469 189.582031 18.265625 C 189.386719 18.390625 189.261719 18.53125 189.117188 18.707031 C 188.792969 19.09375 188.65625 19.574219 188.535156 20.066406 C 188.484375 20.269531 188.457031 20.480469 188.457031 20.691406 C 188.460938 20.964844 188.507812 21.238281 188.585938 21.503906 C 188.703125 21.890625 188.820312 22.269531 189.054688 22.609375 C 189.175781 22.789062 189.289062 22.921875 189.445312 23.070312 C 189.8125 23.417969 190.105469 23.644531 190.535156 23.894531 C 190.4375 23.359375 190.464844 22.949219 190.484375 22.394531 C 190.488281 22.296875 190.507812 22.21875 190.503906 22.121094 C 190.5 21.917969 190.503906 21.730469 190.503906 21.53125 C 190.5 21.363281 190.523438 21.203125 190.527344 21.035156 C 190.53125 20.875 190.546875 20.71875 190.542969 20.5625 C 190.542969 20.246094 190.5 19.941406 190.542969 19.632812 C 190.5625 19.519531 190.554688 19.414062 190.574219 19.300781 C 190.589844 19.171875 190.566406 19.066406 190.585938 18.933594 C 190.644531 18.480469 190.667969 18.152344 190.878906 17.699219 Z M 190.878906 17.699219 " fill-opacity="1" fill-rule="evenodd"/><path fill="#2f272a" d="M 200.402344 28.828125 C 200.023438 29.125 199.65625 29.253906 199.234375 29.527344 C 199.027344 29.660156 198.890625 29.804688 198.742188 29.984375 C 198.464844 30.308594 198.429688 30.722656 198.394531 31.152344 C 198.394531 31.460938 198.402344 31.761719 198.453125 32.054688 C 198.472656 32.183594 198.5 32.3125 198.546875 32.433594 C 198.695312 32.855469 198.890625 33.242188 199.15625 33.589844 C 199.320312 33.804688 199.472656 34.003906 199.683594 34.171875 C 200.183594 34.574219 200.632812 34.789062 201.265625 35.027344 C 201 34.378906 200.976562 33.863281 200.828125 33.21875 C 200.769531 32.953125 200.714844 32.707031 200.652344 32.441406 C 200.59375 32.195312 200.5625 31.941406 200.5 31.6875 C 200.433594 31.4375 200.324219 31.199219 200.265625 30.9375 C 200.207031 30.773438 200.160156 30.621094 200.191406 30.445312 C 200.304688 29.867188 200.390625 29.402344 200.402344 28.828125 Z M 200.402344 28.828125 " fill-opacity="1" fill-rule="evenodd"/><path fill="#2f272a" d="M 209.800781 43.296875 C 209.132812 43.390625 208.644531 43.554688 208.113281 43.832031 C 207.863281 43.960938 207.664062 44.117188 207.460938 44.300781 C 207.050781 44.671875 206.789062 45.152344 206.558594 45.640625 C 206.40625 45.96875 206.289062 46.316406 206.234375 46.671875 C 206.179688 47.023438 206.179688 47.382812 206.222656 47.738281 C 206.285156 48.253906 206.367188 48.765625 206.59375 49.25 C 206.707031 49.488281 206.824219 49.695312 206.984375 49.910156 C 207.339844 50.40625 207.6875 50.78125 208.164062 51.179688 C 208.050781 50.597656 208.058594 50.109375 208.050781 49.523438 C 208.046875 49.175781 208.085938 48.863281 208.101562 48.519531 C 208.117188 48.046875 208.199219 47.601562 208.269531 47.152344 C 208.316406 46.859375 208.34375 46.570312 208.414062 46.289062 C 208.507812 45.902344 208.621094 45.53125 208.78125 45.15625 C 209.058594 44.5 209.253906 43.910156 209.800781 43.296875 Z M 209.800781 43.296875 " fill-opacity="1" fill-rule="evenodd"/><path fill="#2f272a" d="M 103.695312 56.777344 C 104.148438 56.953125 104.453125 57.09375 104.925781 57.246094 C 105.113281 57.304688 105.265625 57.347656 105.460938 57.378906 C 105.757812 57.421875 106.046875 57.410156 106.347656 57.398438 C 106.648438 57.386719 106.949219 57.367188 107.238281 57.292969 C 107.539062 57.210938 107.816406 57.082031 108.085938 56.9375 C 108.367188 56.78125 108.636719 56.640625 108.871094 56.425781 C 109.027344 56.285156 109.140625 56.164062 109.265625 55.996094 C 109.5625 55.601562 109.75 55.304688 109.953125 54.847656 C 109.332031 55.023438 108.863281 54.96875 108.230469 55.039062 C 107.96875 55.070312 107.730469 55.105469 107.46875 55.148438 C 107.222656 55.1875 106.972656 55.203125 106.722656 55.265625 C 106.472656 55.328125 106.238281 55.429688 105.992188 55.515625 C 105.734375 55.605469 105.488281 55.6875 105.238281 55.804688 C 105.066406 55.878906 104.945312 55.964844 104.785156 56.0625 C 104.363281 56.320312 104.101562 56.519531 103.695312 56.777344 Z M 103.695312 56.777344 " fill-opacity="1" fill-rule="evenodd"/><g clip-path="url(#07735ab266)"><path fill="#2f272a" d="M 114.207031 59.277344 C 114.710938 50.921875 117.496094 43.210938 121.910156 36.707031 C 123.835938 33.871094 126.078125 31.273438 128.570312 28.9375 C 132.6875 25.082031 137.507812 21.96875 142.839844 19.855469 C 147.96875 17.824219 153.558594 16.703125 159.410156 16.734375 C 165.261719 16.699219 170.851562 17.816406 175.980469 19.84375 C 181.316406 21.949219 186.136719 25.058594 190.265625 28.910156 C 198.488281 36.585938 203.914062 47.25 204.609375 59.257812 C 204.4375 47.027344 199.433594 35.882812 191.324219 27.808594 C 187.171875 23.675781 182.195312 20.367188 176.691406 18.089844 C 171.363281 15.882812 165.527344 14.675781 159.410156 14.640625 C 153.292969 14.671875 147.449219 15.878906 142.121094 18.078125 C 136.609375 20.351562 131.628906 23.660156 127.464844 27.792969 C 124.964844 30.273438 122.769531 33.054688 120.914062 36.0625 C 116.730469 42.84375 114.304688 50.796875 114.207031 59.277344 Z M 114.207031 59.277344 " fill-opacity="1" fill-rule="evenodd"/></g><g clip-path="url(#ac044356e4)"><path fill="#2f272a" d="M 69.710938 59.277344 C 71.097656 59.359375 72.546875 59.414062 74.019531 59.460938 C 76.167969 59.527344 78.363281 59.570312 80.484375 59.613281 L 102.21875 60.085938 C 108.082031 60.207031 113.945312 60.308594 119.808594 60.351562 C 128.605469 60.417969 137.398438 60.378906 146.1875 60.394531 C 150.574219 60.386719 154.960938 60.398438 159.347656 60.382812 C 163.734375 60.371094 168.125 60.339844 172.511719 60.300781 C 181.296875 60.226562 190.078125 60.113281 198.84375 59.976562 C 201.21875 59.929688 203.597656 59.894531 205.972656 59.847656 C 211.519531 59.738281 217.0625 59.617188 222.605469 59.527344 C 227.882812 59.441406 233.164062 59.367188 238.453125 59.332031 L 247.382812 59.167969 L 250.339844 59.132812 L 247.382812 59.058594 L 238.457031 58.902344 C 231.839844 58.714844 225.246094 58.566406 218.644531 58.476562 C 212.042969 58.386719 205.445312 58.359375 198.828125 58.328125 C 186.5625 58.363281 174.265625 58.273438 161.976562 58.289062 C 156.707031 58.296875 151.441406 58.347656 146.175781 58.386719 L 102.226562 58.863281 L 80.484375 59.199219 C 78.363281 59.234375 76.167969 59.277344 74.023438 59.292969 C 72.550781 59.304688 71.101562 59.304688 69.710938 59.277344 Z M 69.710938 59.277344 " fill-opacity="1" fill-rule="evenodd"/></g><g clip-path="url(#af3795595d)"><path fill="#2f272a" d="M 68.023438 59.445312 C 72.492188 59.597656 76.960938 59.757812 81.4375 59.898438 C 84.417969 59.996094 87.398438 60.082031 90.386719 60.15625 C 98.207031 60.332031 106.011719 60.484375 113.820312 60.554688 C 121.628906 60.625 129.433594 60.609375 137.246094 60.648438 C 143.234375 60.660156 149.226562 60.695312 155.214844 60.699219 C 159.207031 60.699219 163.199219 60.691406 167.195312 60.675781 C 176.179688 60.636719 185.167969 60.574219 194.152344 60.484375 C 200.144531 60.421875 206.128906 60.328125 212.121094 60.246094 L 251.246094 59.441406 C 246.03125 59.335938 240.816406 59.253906 235.59375 59.1875 C 227.765625 59.085938 219.9375 59.015625 212.117188 58.910156 C 206.128906 58.863281 200.136719 58.796875 194.144531 58.757812 C 185.164062 58.695312 176.179688 58.644531 167.195312 58.621094 C 163.199219 58.609375 159.207031 58.609375 155.214844 58.621094 C 149.222656 58.636719 143.230469 58.6875 137.242188 58.722656 C 129.429688 58.796875 121.625 58.851562 113.8125 58.964844 C 106.011719 59.074219 98.210938 59.234375 90.394531 59.308594 Z M 68.023438 59.445312 " fill-opacity="1" fill-rule="evenodd"/></g><g clip-path="url(#9b768fb908)"><path fill="#2f272a" d="M 71.402344 59.277344 C 72.738281 59.367188 74.109375 59.429688 75.503906 59.476562 C 78.660156 59.582031 81.914062 59.613281 85.070312 59.710938 C 92.472656 59.929688 99.878906 60.097656 107.296875 60.214844 C 110.257812 60.257812 113.222656 60.300781 116.1875 60.324219 C 120.628906 60.363281 125.074219 60.375 129.519531 60.402344 C 137.007812 60.433594 144.496094 60.496094 151.976562 60.527344 C 156.96875 60.546875 161.960938 60.554688 166.953125 60.550781 C 173.191406 60.542969 179.429688 60.511719 185.671875 60.476562 C 191.90625 60.441406 198.144531 60.386719 204.390625 60.332031 L 237.71875 59.730469 L 247.625 59.496094 L 237.71875 59.363281 L 204.390625 58.828125 C 196.898438 58.765625 189.414062 58.675781 181.929688 58.609375 C 174.441406 58.546875 166.957031 58.476562 159.46875 58.464844 C 149.488281 58.445312 139.507812 58.527344 129.515625 58.585938 C 125.070312 58.628906 120.625 58.660156 116.183594 58.71875 C 112.03125 58.777344 107.886719 58.847656 103.742188 58.914062 C 97.515625 59.015625 91.292969 59.121094 85.078125 59.167969 C 81.917969 59.195312 78.664062 59.296875 75.503906 59.3125 C 74.113281 59.320312 72.742188 59.316406 71.402344 59.277344 Z M 71.402344 59.277344 " fill-opacity="1" fill-rule="evenodd"/></g><g clip-path="url(#37c94de2bd)"><path fill="#2f272a" d="M 246.03125 59.378906 C 242.765625 59.207031 239.535156 58.972656 236.289062 58.777344 C 234.894531 58.695312 233.503906 58.625 232.105469 58.5625 C 229.550781 58.464844 226.992188 58.355469 224.425781 58.304688 C 218.453125 58.183594 212.460938 58.207031 206.523438 58.078125 C 204.484375 58.0625 202.257812 58.015625 200.003906 58.003906 C 197.800781 57.996094 195.574219 58.015625 193.46875 58.050781 C 188.855469 58.152344 184.335938 58.246094 179.835938 58.429688 C 173.03125 58.710938 166.304688 59.132812 159.410156 59.457031 C 166.308594 59.625 173.046875 59.800781 179.859375 59.882812 C 184.351562 59.9375 188.871094 59.921875 193.476562 59.976562 L 206.503906 60.136719 C 210.757812 60.125 215.035156 60.074219 219.3125 59.996094 C 221.015625 59.96875 222.722656 59.9375 224.425781 59.894531 C 226.992188 59.824219 229.546875 59.722656 232.097656 59.660156 Z M 246.03125 59.378906 " fill-opacity="1" fill-rule="evenodd"/></g><g clip-path="url(#a14375e19f)"><path fill="#2f272a" d="M 245.304688 59.3125 C 241.96875 59.15625 238.691406 58.863281 235.402344 58.660156 C 233.980469 58.574219 232.5625 58.519531 231.140625 58.472656 L 216.179688 58.4375 C 214.152344 58.460938 212.128906 58.46875 210.097656 58.488281 C 208.066406 58.511719 206.035156 58.527344 204.007812 58.585938 C 202.261719 58.632812 200.527344 58.726562 198.78125 58.8125 L 189.847656 59.394531 L 198.78125 59.847656 C 200.402344 59.929688 202.019531 60.035156 203.644531 60.117188 C 204.339844 60.152344 205.035156 60.175781 205.730469 60.203125 C 209.210938 60.328125 212.695312 60.425781 216.171875 60.511719 C 218.015625 60.503906 220.097656 60.488281 222.179688 60.429688 C 225.496094 60.335938 228.8125 60.164062 231.160156 60.082031 C 233.984375 59.890625 236.800781 59.800781 239.640625 59.667969 C 241.527344 59.578125 243.40625 59.460938 245.304688 59.3125 Z M 245.304688 59.3125 " fill-opacity="1" fill-rule="evenodd"/></g><g clip-path="url(#ced7518ce2)"><path fill="#2f272a" d="M 246.753906 59.210938 C 245.832031 59.078125 244.933594 58.9375 243.996094 58.808594 C 243.074219 58.679688 242.167969 58.550781 241.238281 58.453125 C 240.683594 58.398438 240.132812 58.359375 239.578125 58.328125 C 238.273438 58.253906 236.972656 58.234375 235.695312 58.210938 C 234.828125 58.238281 233.9375 58.246094 233.035156 58.300781 C 231.726562 58.382812 230.398438 58.492188 229.0625 58.636719 C 228.398438 58.707031 227.742188 58.792969 227.082031 58.886719 C 225.496094 59.109375 223.972656 59.359375 222.457031 59.554688 C 223.976562 59.757812 225.515625 59.957031 227.113281 60.101562 C 227.78125 60.160156 228.441406 60.210938 229.113281 60.242188 C 230.453125 60.300781 231.789062 60.324219 233.097656 60.320312 C 233.996094 60.320312 234.882812 60.277344 235.742188 60.265625 C 237.007812 60.183594 238.289062 60.140625 239.582031 60.058594 C 240.136719 60.027344 240.683594 59.992188 241.234375 59.933594 C 243.105469 59.742188 244.921875 59.457031 246.753906 59.210938 Z M 246.753906 59.210938 " fill-opacity="1" fill-rule="evenodd"/></g><g clip-path="url(#17323e19fa)"><path fill="#2f272a" d="M 67.054688 59.847656 C 69.570312 59.996094 72.054688 60.1875 74.574219 60.34375 C 75.242188 60.382812 75.90625 60.421875 76.578125 60.445312 C 77.578125 60.484375 78.574219 60.5 79.578125 60.519531 C 81.660156 60.554688 83.746094 60.609375 85.835938 60.585938 C 87.917969 60.558594 90.003906 60.4375 92.09375 60.359375 C 93.257812 60.292969 94.410156 60.25 95.566406 60.171875 C 97.300781 60.050781 99.015625 59.882812 100.773438 59.746094 L 104.554688 59.4375 L 100.773438 59.082031 C 99.011719 58.945312 97.292969 58.789062 95.554688 58.695312 C 94.398438 58.632812 93.242188 58.613281 92.070312 58.578125 C 90.066406 58.554688 88.0625 58.480469 86.066406 58.492188 C 84.5625 58.5 83.0625 58.558594 81.5625 58.613281 C 80.054688 58.664062 78.554688 58.722656 77.054688 58.8125 C 76.046875 58.875 75.054688 58.957031 74.050781 59.050781 C 71.703125 59.273438 69.390625 59.566406 67.054688 59.847656 Z M 67.054688 59.847656 " fill-opacity="1" fill-rule="evenodd"/></g><g clip-path="url(#20f80285a4)"><g clip-path="url(#2ced96eaac)"><path fill="#2f272a" d="M 16.882812 39.277344 L 303.066406 39.277344 L 303.066406 93.265625 L 16.882812 93.265625 Z M 16.882812 39.277344 " fill-opacity="1" fill-rule="nonzero"/></g></g><g clip-path="url(#14678f42eb)"><g clip-path="url(#e1d53b900b)"><path stroke-linecap="butt" transform="matrix(0.74845, 0, 0, 0.74845, 16.896258, 39.277095)" fill="none" stroke-linejoin="miter" d="M 6.99653 0.000332366 L 375.351388 0.000332366 C 377.209394 0.000332366 378.989113 0.736228 380.299112 2.051445 C 381.614329 3.361444 382.350225 5.141163 382.350225 6.999169 L 382.350225 65.124478 C 382.350225 66.982483 381.614329 68.762202 380.299112 70.07742 C 378.989113 71.387418 377.209394 72.123314 375.351388 72.123314 L 6.99653 72.123314 C 5.143743 72.123314 3.364024 71.387418 2.048807 70.07742 C 0.738808 68.762202 -0.00230656 66.982483 -0.00230656 65.124478 L -0.00230656 6.999169 C -0.00230656 5.141163 0.738808 3.361444 2.048807 2.051445 C 3.364024 0.736228 5.143743 0.000332366 6.99653 0.000332366 Z M 6.99653 0.000332366 " stroke="#2f272a" stroke-width="12" stroke-opacity="1" stroke-miterlimit="4"/></g></g><g fill="#ffffff" fill-opacity="1"><g transform="translate(23.989055, 79.298651)"><g><path d="M 9.75 0.34375 C 7.84375 0.34375 6.128906 -0.128906 4.609375 -1.078125 C 3.097656 -2.035156 2.003906 -3.304688 1.328125 -4.890625 L 3.5 -6.125 C 3.96875 -4.882812 4.757812 -3.890625 5.875 -3.140625 C 6.96875 -2.398438 8.273438 -2.03125 9.796875 -2.03125 C 11.398438 -2.03125 12.738281 -2.445312 13.8125 -3.28125 C 14.882812 -4.101562 15.421875 -5.234375 15.421875 -6.671875 C 15.421875 -7.585938 15.1875 -8.394531 14.71875 -9.09375 C 14.226562 -9.789062 13.613281 -10.363281 12.875 -10.8125 C 12.101562 -11.25 11.257812 -11.664062 10.34375 -12.0625 C 9.414062 -12.4375 8.484375 -12.84375 7.546875 -13.28125 C 6.617188 -13.707031 5.78125 -14.1875 5.03125 -14.71875 C 4.257812 -15.257812 3.644531 -15.957031 3.1875 -16.8125 C 2.695312 -17.675781 2.453125 -18.679688 2.453125 -19.828125 C 2.453125 -21.878906 3.148438 -23.523438 4.546875 -24.765625 C 5.921875 -25.972656 7.625 -26.578125 9.65625 -26.578125 C 11.070312 -26.578125 12.390625 -26.273438 13.609375 -25.671875 C 14.796875 -25.066406 15.75 -24.296875 16.46875 -23.359375 L 14.65625 -21.78125 C 13.53125 -23.394531 11.882812 -24.203125 9.71875 -24.203125 C 8.34375 -24.203125 7.191406 -23.835938 6.265625 -23.109375 C 5.304688 -22.390625 4.828125 -21.351562 4.828125 -20 C 4.828125 -18.8125 5.269531 -17.8125 6.15625 -17 C 7.039062 -16.175781 8.125 -15.507812 9.40625 -15 C 10.664062 -14.488281 11.9375 -13.941406 13.21875 -13.359375 C 14.476562 -12.773438 15.550781 -11.9375 16.4375 -10.84375 C 17.320312 -9.75 17.765625 -8.382812 17.765625 -6.75 C 17.765625 -4.5625 16.992188 -2.835938 15.453125 -1.578125 C 13.910156 -0.296875 12.007812 0.34375 9.75 0.34375 Z M 9.75 0.34375 "/></g></g></g><g fill="#ffffff" fill-opacity="1"><g transform="translate(42.626147, 79.298651)"><g><path d="M 12.796875 0.34375 C 10.023438 0.34375 7.71875 -0.515625 5.875 -2.234375 C 4.03125 -3.941406 3.109375 -6.078125 3.109375 -8.640625 L 3.109375 -26.234375 L 5.453125 -26.234375 L 5.453125 -8.984375 C 5.453125 -7.003906 6.148438 -5.347656 7.546875 -4.015625 C 8.953125 -2.691406 10.703125 -2.03125 12.796875 -2.03125 C 14.867188 -2.03125 16.609375 -2.691406 18.015625 -4.015625 C 19.410156 -5.347656 20.109375 -7.003906 20.109375 -8.984375 L 20.109375 -26.234375 L 22.484375 -26.234375 L 22.484375 -8.640625 C 22.484375 -6.078125 21.5625 -3.941406 19.71875 -2.234375 C 17.875 -0.515625 15.566406 0.34375 12.796875 0.34375 Z M 12.796875 0.34375 "/></g></g></g><g fill="#ffffff" fill-opacity="1"><g transform="translate(67.732076, 79.298651)"><g><path d="M 26.40625 -26.234375 L 28.84375 -26.234375 L 28.84375 0 L 26.5 0 L 26.5 -21.953125 L 16.015625 -3.984375 L 5.59375 -22 L 5.59375 0 L 3.25 0 L 3.25 -26.234375 L 5.703125 -26.234375 L 16.046875 -8.53125 Z M 26.40625 -26.234375 "/></g></g></g><g fill="#ffffff" fill-opacity="1"><g transform="translate(99.341822, 79.298651)"><g><path d="M 26.40625 -26.234375 L 28.84375 -26.234375 L 28.84375 0 L 26.5 0 L 26.5 -21.953125 L 16.015625 -3.984375 L 5.59375 -22 L 5.59375 0 L 3.25 0 L 3.25 -26.234375 L 5.703125 -26.234375 L 16.046875 -8.53125 Z M 26.40625 -26.234375 "/></g></g></g><g fill="#ffffff" fill-opacity="1"><g transform="translate(130.951573, 79.298651)"><g><path d="M 17.546875 -23.953125 L 5.8125 -23.953125 L 5.8125 -14.265625 L 16.078125 -14.265625 L 16.078125 -11.953125 L 5.8125 -11.953125 L 5.8125 -2.265625 L 17.546875 -2.265625 L 17.546875 0 L 3.46875 0 L 3.46875 -26.234375 L 17.546875 -26.234375 Z M 17.546875 -23.953125 "/></g></g></g><g fill="#ffffff" fill-opacity="1"><g transform="translate(149.728534, 79.298651)"><g><path d="M 13.421875 -12.0625 L 21.1875 0 L 18.390625 0 L 10.84375 -11.953125 L 5.59375 -11.953125 L 5.59375 0 L 3.25 0 L 3.25 -26.234375 L 12.34375 -26.234375 C 14.34375 -26.234375 16.054688 -25.53125 17.484375 -24.125 C 18.878906 -22.707031 19.578125 -20.992188 19.578125 -18.984375 C 19.578125 -17.210938 18.992188 -15.675781 17.828125 -14.375 C 16.640625 -13.039062 15.171875 -12.269531 13.421875 -12.0625 Z M 5.59375 -14.234375 L 12.234375 -14.234375 C 13.660156 -14.234375 14.851562 -14.6875 15.8125 -15.59375 C 16.738281 -16.476562 17.203125 -17.617188 17.203125 -19.015625 C 17.203125 -20.421875 16.722656 -21.578125 15.765625 -22.484375 C 14.816406 -23.390625 13.640625 -23.84375 12.234375 -23.84375 L 5.59375 -23.84375 Z M 5.59375 -14.234375 "/></g></g></g><g fill="#ffffff" fill-opacity="1"><g transform="translate(171.37277, 79.298651)"><g/></g></g><g fill="#ffffff" fill-opacity="1"><g transform="translate(180.673741, 79.298651)"><g><path d="M 9.75 0.34375 C 7.84375 0.34375 6.128906 -0.128906 4.609375 -1.078125 C 3.097656 -2.035156 2.003906 -3.304688 1.328125 -4.890625 L 3.5 -6.125 C 3.96875 -4.882812 4.757812 -3.890625 5.875 -3.140625 C 6.96875 -2.398438 8.273438 -2.03125 9.796875 -2.03125 C 11.398438 -2.03125 12.738281 -2.445312 13.8125 -3.28125 C 14.882812 -4.101562 15.421875 -5.234375 15.421875 -6.671875 C 15.421875 -7.585938 15.1875 -8.394531 14.71875 -9.09375 C 14.226562 -9.789062 13.613281 -10.363281 12.875 -10.8125 C 12.101562 -11.25 11.257812 -11.664062 10.34375 -12.0625 C 9.414062 -12.4375 8.484375 -12.84375 7.546875 -13.28125 C 6.617188 -13.707031 5.78125 -14.1875 5.03125 -14.71875 C 4.257812 -15.257812 3.644531 -15.957031 3.1875 -16.8125 C 2.695312 -17.675781 2.453125 -18.679688 2.453125 -19.828125 C 2.453125 -21.878906 3.148438 -23.523438 4.546875 -24.765625 C 5.921875 -25.972656 7.625 -26.578125 9.65625 -26.578125 C 11.070312 -26.578125 12.390625 -26.273438 13.609375 -25.671875 C 14.796875 -25.066406 15.75 -24.296875 16.46875 -23.359375 L 14.65625 -21.78125 C 13.53125 -23.394531 11.882812 -24.203125 9.71875 -24.203125 C 8.34375 -24.203125 7.191406 -23.835938 6.265625 -23.109375 C 5.304688 -22.390625 4.828125 -21.351562 4.828125 -20 C 4.828125 -18.8125 5.269531 -17.8125 6.15625 -17 C 7.039062 -16.175781 8.125 -15.507812 9.40625 -15 C 10.664062 -14.488281 11.9375 -13.941406 13.21875 -13.359375 C 14.476562 -12.773438 15.550781 -11.9375 16.4375 -10.84375 C 17.320312 -9.75 17.765625 -8.382812 17.765625 -6.75 C 17.765625 -4.5625 16.992188 -2.835938 15.453125 -1.578125 C 13.910156 -0.296875 12.007812 0.34375 9.75 0.34375 Z M 9.75 0.34375 "/></g></g></g><g fill="#ffffff" fill-opacity="1"><g transform="translate(199.310836, 79.298651)"><g><path d="M 17.484375 -26.234375 L 17.484375 -23.890625 L 10.140625 -23.890625 L 10.140625 0 L 7.765625 0 L 7.765625 -23.890625 L 0.453125 -23.890625 L 0.453125 -26.234375 Z M 17.484375 -26.234375 "/></g></g></g><g fill="#ffffff" fill-opacity="1"><g transform="translate(216.724093, 79.298651)"><g><path d="M 13.421875 -12.0625 L 21.1875 0 L 18.390625 0 L 10.84375 -11.953125 L 5.59375 -11.953125 L 5.59375 0 L 3.25 0 L 3.25 -26.234375 L 12.34375 -26.234375 C 14.34375 -26.234375 16.054688 -25.53125 17.484375 -24.125 C 18.878906 -22.707031 19.578125 -20.992188 19.578125 -18.984375 C 19.578125 -17.210938 18.992188 -15.675781 17.828125 -14.375 C 16.640625 -13.039062 15.171875 -12.269531 13.421875 -12.0625 Z M 5.59375 -14.234375 L 12.234375 -14.234375 C 13.660156 -14.234375 14.851562 -14.6875 15.8125 -15.59375 C 16.738281 -16.476562 17.203125 -17.617188 17.203125 -19.015625 C 17.203125 -20.421875 16.722656 -21.578125 15.765625 -22.484375 C 14.816406 -23.390625 13.640625 -23.84375 12.234375 -23.84375 L 5.59375 -23.84375 Z M 5.59375 -14.234375 "/></g></g></g><g fill="#ffffff" fill-opacity="1"><g transform="translate(238.368328, 79.298651)"><g><path d="M 17.546875 -23.953125 L 5.8125 -23.953125 L 5.8125 -14.265625 L 16.078125 -14.265625 L 16.078125 -11.953125 L 5.8125 -11.953125 L 5.8125 -2.265625 L 17.546875 -2.265625 L 17.546875 0 L 3.46875 0 L 3.46875 -26.234375 L 17.546875 -26.234375 Z M 17.546875 -23.953125 "/></g></g></g><g fill="#ffffff" fill-opacity="1"><g transform="translate(257.145278, 79.298651)"><g><path d="M 17.546875 -23.953125 L 5.8125 -23.953125 L 5.8125 -14.265625 L 16.078125 -14.265625 L 16.078125 -11.953125 L 5.8125 -11.953125 L 5.8125 -2.265625 L 17.546875 -2.265625 L 17.546875 0 L 3.46875 0 L 3.46875 -26.234375 L 17.546875 -26.234375 Z M 17.546875 -23.953125 "/></g></g></g><g fill="#ffffff" fill-opacity="1"><g transform="translate(275.922228, 79.298651)"><g><path d="M 17.484375 -26.234375 L 17.484375 -23.890625 L 10.140625 -23.890625 L 10.140625 0 L 7.765625 0 L 7.765625 -23.890625 L 0.453125 -23.890625 L 0.453125 -26.234375 Z M 17.484375 -26.234375 "/></g></g></g><g fill="#2f272a" fill-opacity="1"><g transform="translate(46.62492, 110.98941)"><g><path d="M 4.515625 0.140625 C 3.578125 0.140625 2.726562 -0.0859375 1.96875 -0.546875 C 1.195312 -1.015625 0.628906 -1.609375 0.265625 -2.328125 L 2.421875 -3.6875 C 2.609375 -3.257812 2.890625 -2.921875 3.265625 -2.671875 C 3.628906 -2.429688 4.054688 -2.3125 4.546875 -2.3125 C 4.921875 -2.3125 5.21875 -2.390625 5.4375 -2.546875 C 5.632812 -2.703125 5.734375 -2.910156 5.734375 -3.171875 C 5.734375 -3.492188 5.566406 -3.757812 5.234375 -3.96875 C 4.878906 -4.164062 4.457031 -4.34375 3.96875 -4.5 C 3.476562 -4.644531 2.988281 -4.820312 2.5 -5.03125 C 2.019531 -5.25 1.609375 -5.59375 1.265625 -6.0625 C 0.921875 -6.519531 0.75 -7.097656 0.75 -7.796875 C 0.75 -8.847656 1.109375 -9.65625 1.828125 -10.21875 C 2.535156 -10.78125 3.363281 -11.0625 4.3125 -11.0625 C 4.976562 -11.0625 5.613281 -10.921875 6.21875 -10.640625 C 6.820312 -10.347656 7.335938 -9.960938 7.765625 -9.484375 L 6.046875 -7.8125 C 5.441406 -8.445312 4.851562 -8.765625 4.28125 -8.765625 C 4.019531 -8.765625 3.804688 -8.695312 3.640625 -8.5625 C 3.460938 -8.425781 3.375 -8.226562 3.375 -7.96875 C 3.375 -7.695312 3.5 -7.46875 3.75 -7.28125 C 4 -7.09375 4.304688 -6.953125 4.671875 -6.859375 C 5.046875 -6.753906 5.445312 -6.613281 5.875 -6.4375 C 6.300781 -6.25 6.695312 -6.046875 7.0625 -5.828125 C 7.425781 -5.597656 7.738281 -5.253906 8 -4.796875 C 8.238281 -4.328125 8.359375 -3.769531 8.359375 -3.125 C 8.359375 -2.132812 7.988281 -1.34375 7.25 -0.75 C 6.5 -0.15625 5.585938 0.140625 4.515625 0.140625 Z M 4.515625 0.140625 "/></g></g></g><g fill="#2f272a" fill-opacity="1"><g transform="translate(60.185047, 110.98941)"><g><path d="M 8.734375 0 L 8.03125 -1.9375 L 3.484375 -1.9375 L 2.78125 0 L -0.140625 0 L 4.234375 -10.921875 L 7.28125 -10.921875 L 11.671875 0 Z M 4.296875 -4.15625 L 7.234375 -4.15625 L 5.765625 -8.1875 Z M 4.296875 -4.15625 "/></g></g></g><g fill="#2f272a" fill-opacity="1"><g transform="translate(76.511823, 110.98941)"><g><path d="M 12.46875 -10.921875 L 15.328125 -10.921875 L 12.453125 0 L 9.296875 0 L 7.53125 -7.09375 L 5.75 0 L 2.59375 0 L -0.296875 -10.921875 L 2.578125 -10.921875 L 4.328125 -3.65625 L 6.28125 -10.921875 L 8.765625 -10.921875 L 10.71875 -3.65625 Z M 12.46875 -10.921875 "/></g></g></g><g fill="#2f272a" fill-opacity="1"><g transform="translate(96.362426, 110.98941)"><g><path d="M 1.015625 0 L 1.015625 -10.921875 L 4.765625 -10.921875 C 6.554688 -10.921875 7.9375 -10.40625 8.90625 -9.375 C 9.882812 -8.34375 10.375 -7.039062 10.375 -5.46875 C 10.375 -3.882812 9.882812 -2.578125 8.90625 -1.546875 C 7.9375 -0.515625 6.554688 0 4.765625 0 Z M 3.734375 -2.359375 L 4.609375 -2.359375 C 5.578125 -2.359375 6.304688 -2.644531 6.796875 -3.21875 C 7.285156 -3.789062 7.53125 -4.539062 7.53125 -5.46875 C 7.53125 -6.382812 7.285156 -7.128906 6.796875 -7.703125 C 6.304688 -8.273438 5.578125 -8.5625 4.609375 -8.5625 L 3.734375 -8.5625 Z M 3.734375 -2.359375 "/></g></g></g><g fill="#2f272a" fill-opacity="1"><g transform="translate(112.164988, 110.98941)"><g><path d="M 5.609375 0.140625 C 4.304688 0.140625 3.207031 -0.207031 2.3125 -0.90625 C 1.414062 -1.601562 0.96875 -2.460938 0.96875 -3.484375 L 0.96875 -10.921875 L 3.671875 -10.921875 L 3.671875 -3.984375 C 3.671875 -3.492188 3.859375 -3.078125 4.234375 -2.734375 C 4.609375 -2.390625 5.066406 -2.21875 5.609375 -2.21875 C 6.148438 -2.21875 6.609375 -2.390625 6.984375 -2.734375 C 7.367188 -3.078125 7.5625 -3.492188 7.5625 -3.984375 L 7.5625 -10.921875 L 10.265625 -10.921875 L 10.265625 -3.484375 C 10.265625 -2.460938 9.816406 -1.601562 8.921875 -0.90625 C 8.023438 -0.207031 6.921875 0.140625 5.609375 0.140625 Z M 5.609375 0.140625 "/></g></g></g><g fill="#2f272a" fill-opacity="1"><g transform="translate(128.200537, 110.98941)"><g><path d="M 4.515625 0.140625 C 3.578125 0.140625 2.726562 -0.0859375 1.96875 -0.546875 C 1.195312 -1.015625 0.628906 -1.609375 0.265625 -2.328125 L 2.421875 -3.6875 C 2.609375 -3.257812 2.890625 -2.921875 3.265625 -2.671875 C 3.628906 -2.429688 4.054688 -2.3125 4.546875 -2.3125 C 4.921875 -2.3125 5.21875 -2.390625 5.4375 -2.546875 C 5.632812 -2.703125 5.734375 -2.910156 5.734375 -3.171875 C 5.734375 -3.492188 5.566406 -3.757812 5.234375 -3.96875 C 4.878906 -4.164062 4.457031 -4.34375 3.96875 -4.5 C 3.476562 -4.644531 2.988281 -4.820312 2.5 -5.03125 C 2.019531 -5.25 1.609375 -5.59375 1.265625 -6.0625 C 0.921875 -6.519531 0.75 -7.097656 0.75 -7.796875 C 0.75 -8.847656 1.109375 -9.65625 1.828125 -10.21875 C 2.535156 -10.78125 3.363281 -11.0625 4.3125 -11.0625 C 4.976562 -11.0625 5.613281 -10.921875 6.21875 -10.640625 C 6.820312 -10.347656 7.335938 -9.960938 7.765625 -9.484375 L 6.046875 -7.8125 C 5.441406 -8.445312 4.851562 -8.765625 4.28125 -8.765625 C 4.019531 -8.765625 3.804688 -8.695312 3.640625 -8.5625 C 3.460938 -8.425781 3.375 -8.226562 3.375 -7.96875 C 3.375 -7.695312 3.5 -7.46875 3.75 -7.28125 C 4 -7.09375 4.304688 -6.953125 4.671875 -6.859375 C 5.046875 -6.753906 5.445312 -6.613281 5.875 -6.4375 C 6.300781 -6.25 6.695312 -6.046875 7.0625 -5.828125 C 7.425781 -5.597656 7.738281 -5.253906 8 -4.796875 C 8.238281 -4.328125 8.359375 -3.769531 8.359375 -3.125 C 8.359375 -2.132812 7.988281 -1.34375 7.25 -0.75 C 6.5 -0.15625 5.585938 0.140625 4.515625 0.140625 Z M 4.515625 0.140625 "/></g></g></g><g fill="#2f272a" fill-opacity="1"><g transform="translate(141.760664, 110.98941)"><g><path d="M 8.21875 -10.921875 L 8.21875 -8.5625 L 5.53125 -8.5625 L 5.53125 0 L 2.84375 0 L 2.84375 -8.5625 L 0.140625 -8.5625 L 0.140625 -10.921875 Z M 8.21875 -10.921875 "/></g></g></g><g fill="#2f272a" fill-opacity="1"><g transform="translate(154.927636, 110.98941)"><g/></g></g><g fill="#2f272a" fill-opacity="1"><g transform="translate(163.522352, 110.98941)"><g><path d="M 6.234375 0.140625 C 4.679688 0.140625 3.359375 -0.40625 2.265625 -1.5 C 1.171875 -2.582031 0.625 -3.90625 0.625 -5.46875 C 0.625 -7.019531 1.171875 -8.34375 2.265625 -9.4375 C 3.359375 -10.519531 4.679688 -11.0625 6.234375 -11.0625 C 7.140625 -11.0625 7.984375 -10.863281 8.765625 -10.46875 C 9.554688 -10.070312 10.207031 -9.523438 10.71875 -8.828125 L 8.625 -7.25 C 8.050781 -8.03125 7.253906 -8.421875 6.234375 -8.421875 C 5.390625 -8.421875 4.6875 -8.140625 4.125 -7.578125 C 3.5625 -7.015625 3.28125 -6.3125 3.28125 -5.46875 C 3.28125 -4.613281 3.5625 -3.90625 4.125 -3.34375 C 4.6875 -2.78125 5.390625 -2.5 6.234375 -2.5 C 7.253906 -2.5 8.050781 -2.890625 8.625 -3.671875 L 10.71875 -2.09375 C 10.207031 -1.394531 9.554688 -0.847656 8.765625 -0.453125 C 7.984375 -0.0546875 7.140625 0.140625 6.234375 0.140625 Z M 6.234375 0.140625 "/></g></g></g><g fill="#2f272a" fill-opacity="1"><g transform="translate(179.33948, 110.98941)"><g><path d="M 6.234375 0.140625 C 4.679688 0.140625 3.359375 -0.40625 2.265625 -1.5 C 1.171875 -2.582031 0.625 -3.90625 0.625 -5.46875 C 0.625 -7.019531 1.171875 -8.34375 2.265625 -9.4375 C 3.359375 -10.519531 4.679688 -11.0625 6.234375 -11.0625 C 7.785156 -11.0625 9.109375 -10.519531 10.203125 -9.4375 C 11.296875 -8.34375 11.84375 -7.019531 11.84375 -5.46875 C 11.84375 -3.90625 11.296875 -2.582031 10.203125 -1.5 C 9.109375 -0.40625 7.785156 0.140625 6.234375 0.140625 Z M 6.234375 -2.5 C 7.078125 -2.5 7.78125 -2.78125 8.34375 -3.34375 C 8.90625 -3.90625 9.1875 -4.613281 9.1875 -5.46875 C 9.1875 -6.3125 8.90625 -7.015625 8.34375 -7.578125 C 7.78125 -8.140625 7.078125 -8.421875 6.234375 -8.421875 C 5.390625 -8.421875 4.6875 -8.140625 4.125 -7.578125 C 3.5625 -7.015625 3.28125 -6.3125 3.28125 -5.46875 C 3.28125 -4.613281 3.5625 -3.90625 4.125 -3.34375 C 4.6875 -2.78125 5.390625 -2.5 6.234375 -2.5 Z M 6.234375 -2.5 "/></g></g></g><g fill="#2f272a" fill-opacity="1"><g transform="translate(196.612734, 110.98941)"><g><path d="M 10.5 -10.921875 L 13.421875 -10.921875 L 13.421875 0 L 10.71875 0 L 10.71875 -6.703125 L 7.203125 -0.578125 L 3.734375 -6.703125 L 3.734375 0 L 1.015625 0 L 1.015625 -10.921875 L 3.96875 -10.921875 L 7.21875 -5.328125 Z M 10.5 -10.921875 "/></g></g></g><g fill="#2f272a" fill-opacity="1"><g transform="translate(215.866328, 110.98941)"><g><path d="M 5.84375 -10.921875 C 6.769531 -10.921875 7.554688 -10.597656 8.203125 -9.953125 C 8.835938 -9.296875 9.15625 -8.503906 9.15625 -7.578125 C 9.15625 -6.640625 8.84375 -5.863281 8.21875 -5.25 C 7.570312 -4.625 6.78125 -4.3125 5.84375 -4.3125 L 3.734375 -4.3125 L 3.734375 0 L 1.015625 0 L 1.015625 -10.921875 Z M 5.390625 -6.515625 C 5.722656 -6.515625 6.003906 -6.609375 6.234375 -6.796875 C 6.453125 -6.992188 6.5625 -7.242188 6.5625 -7.546875 C 6.5625 -7.847656 6.453125 -8.09375 6.234375 -8.28125 C 6.003906 -8.46875 5.722656 -8.5625 5.390625 -8.5625 L 3.734375 -8.5625 L 3.734375 -6.515625 Z M 5.390625 -6.515625 "/></g></g></g><g fill="#2f272a" fill-opacity="1"><g transform="translate(229.834163, 110.98941)"><g><path d="M 8.734375 0 L 8.03125 -1.9375 L 3.484375 -1.9375 L 2.78125 0 L -0.140625 0 L 4.234375 -10.921875 L 7.28125 -10.921875 L 11.671875 0 Z M 4.296875 -4.15625 L 7.234375 -4.15625 L 5.765625 -8.1875 Z M 4.296875 -4.15625 "/></g></g></g><g fill="#2f272a" fill-opacity="1"><g transform="translate(246.160951, 110.98941)"><g><path d="M 8.859375 -10.921875 L 11.5625 -10.921875 L 11.5625 0 L 8.71875 0 L 3.734375 -6.953125 L 3.734375 0 L 1.015625 0 L 1.015625 -10.921875 L 3.84375 -10.921875 L 8.859375 -3.984375 Z M 8.859375 -10.921875 "/></g></g></g><g fill="#2f272a" fill-opacity="1"><g transform="translate(263.550687, 110.98941)"><g><path d="M 10.078125 -10.921875 L 6.265625 -5.15625 L 6.265625 0 L 3.546875 0 L 3.546875 -5.109375 L -0.296875 -10.921875 L 2.71875 -10.921875 L 4.90625 -7.4375 L 7.09375 -10.921875 Z M 10.078125 -10.921875 "/></g></g></g></svg>